<svg width="50" height="44" viewBox="0 0 50 44" fill="none" xmlns="http://www.w3.org/2000/svg">
<path d="M35.8741 1.20459L34.588 2.40935L40.6094 7.75221L46.6308 13.1475L47.917 11.8903C48.6185 11.2094 49.2031 10.3189 49.2031 9.95222C49.2031 8.9046 39.2064 -0.000179291 38.0372 -0.000179291C37.5695 -0.000179291 36.5757 0.523631 35.8741 1.20459Z" fill="#DC293F"/>
<path d="M43.5909 0.575738C43.0647 1.36145 47.6831 5.49956 48.56 5.02813C49.6123 4.45194 49.32 2.19955 48.0339 1.04717C46.7477 -0.105215 44.234 -0.36712 43.5909 0.575738Z" fill="#DC293F"/>
<path d="M26.5207 2.25272C25.8192 2.93367 25.2346 3.82415 25.2346 4.2432C25.2346 5.23844 43.4157 21.4766 44.5849 21.4766C45.6957 21.4766 48.0341 19.3289 48.0341 18.2813C48.0341 17.2861 29.8529 1.04796 28.6837 1.04796C28.216 1.04796 27.2222 1.57177 26.5207 2.25272Z" fill="#DC293F"/>
<path d="M22.7789 20.271L14.7698 27.4996L16.5821 29.2806L18.3359 31.0615L26.5788 23.6758L34.8217 16.2901L33.1264 14.6663C32.191 13.8282 31.3141 13.0948 31.0803 13.0948C30.9049 13.0948 27.1634 16.3425 22.7789 20.271Z" fill="#DC293F"/>
<path d="M2.55175 23.7283C1.85023 24.4093 1.26562 25.2997 1.26562 25.7188C1.26562 26.714 19.4468 42.9521 20.616 42.9521C21.7267 42.9521 24.0652 40.8045 24.0652 39.7569C24.0652 38.7617 5.88399 22.5235 4.71479 22.5235C4.2471 22.5235 3.25328 23.0474 2.55175 23.7283Z" fill="#DC293F"/>
<path d="M1.38275 32.1095C0.681222 32.7905 0.0966187 33.6809 0.0966187 34.1C0.0966187 35.0952 10.0933 44 11.2625 44C11.7887 44 12.7241 43.4762 13.4256 42.7952L14.7117 41.5905L8.69029 36.2476L2.66887 30.8524L1.38275 32.1095Z" fill="#DC293F"/>
<path d="M0.505695 39.1286C-1.07273 40.4905 1.32414 44 3.83793 44C6.23481 44 6.23481 42.9524 3.83793 40.8048C1.55798 38.7095 1.14876 38.5 0.505695 39.1286Z" fill="#DC293F"/>
</svg>
