<svg width="450" height="400" viewBox="0 0 450 400" fill="none" xmlns="http://www.w3.org/2000/svg">
<path d="M225 370.92C335.575 370.92 425.214 324.916 425.214 268.168C425.214 211.42 335.575 165.416 225 165.416C114.425 165.416 24.786 211.42 24.786 268.168C24.786 324.916 114.425 370.92 225 370.92Z" fill="#F5F5F5"/>
<path d="M260.946 353.36L359.172 302.96C361.323 301.856 361.323 300.064 359.172 298.96L173.205 203.512C171.997 202.967 170.662 202.684 169.308 202.684C167.954 202.684 166.619 202.967 165.411 203.512L67.185 253.912C65.034 255.016 65.034 256.808 67.185 257.912L253.152 353.36C254.36 353.905 255.695 354.189 257.049 354.189C258.403 354.189 259.738 353.905 260.946 353.36Z" fill="#E0E0E0"/>
<path d="M85.968 255.824L93.672 251.872C93.672 251.872 95.553 237.216 94.302 225.864C92.502 209.92 80.946 190.728 67.122 195.232C53.298 199.736 73.422 215.984 77.922 229.512C82.422 243.04 85.968 255.824 85.968 255.824Z" fill="#72C868"/>
<path opacity="0.15" d="M85.968 255.824L93.672 251.872C93.672 251.872 95.553 237.216 94.302 225.864C92.502 209.92 80.946 190.728 67.122 195.232C53.298 199.736 73.422 215.984 77.922 229.512C82.422 243.04 85.968 255.824 85.968 255.824Z" fill="black"/>
<path d="M90 254.16C89.8774 254.156 89.7616 254.109 89.6775 254.029C89.5933 253.95 89.5475 253.845 89.55 253.736C90.9 218.296 71.1 200.464 70.857 200.288C70.8132 200.25 70.7784 200.204 70.7546 200.154C70.7308 200.104 70.7186 200.05 70.7186 199.996C70.7186 199.941 70.7308 199.887 70.7546 199.837C70.7784 199.787 70.8132 199.742 70.857 199.704C70.9446 199.627 71.0626 199.584 71.1855 199.584C71.3084 199.584 71.4264 199.627 71.514 199.704C71.712 199.888 91.854 217.968 90.486 253.768C90.479 253.877 90.4242 253.979 90.3332 254.052C90.2423 254.125 90.1226 254.164 90 254.16V254.16Z" fill="white"/>
<path d="M81.9 258.656L87.3 255.84C87.3 255.84 88.2 245.784 82.692 233.568C77.859 222.928 65.88 214.104 59.85 215.968C53.82 217.832 54 221.6 56.943 225.6C59.886 229.6 77.76 239.08 81.9 258.656Z" fill="#72C868"/>
<path d="M84.753 257.599C84.6289 257.599 84.5098 257.556 84.4221 257.478C84.3343 257.4 84.285 257.294 84.285 257.183C84.393 234.783 60.723 219.631 60.48 219.479C60.3805 219.415 60.3134 219.319 60.2932 219.211C60.273 219.103 60.3013 218.993 60.372 218.903C60.407 218.859 60.4516 218.821 60.5034 218.792C60.5551 218.763 60.6129 218.743 60.6732 218.734C60.7336 218.725 60.7954 218.727 60.855 218.74C60.9145 218.752 60.9706 218.775 61.02 218.807C61.263 218.959 85.32 234.351 85.221 257.207C85.212 257.313 85.1591 257.412 85.0725 257.484C84.9859 257.557 84.8719 257.598 84.753 257.599Z" fill="white"/>
<path d="M348.957 43.768L356.715 47.768C356.669 47.4656 356.645 47.161 356.643 46.856V44.8C356.643 41.248 359.451 39.808 362.943 41.6C364.432 42.4158 365.706 43.5072 366.678 44.8C367.245 40.336 371.178 38.672 375.975 41.128C381.15 43.784 385.353 50.248 385.353 55.528V58.512C385.387 59.7058 385.113 60.8908 384.552 61.976L390.996 65.28C392.007 65.8654 392.848 66.6544 393.452 67.5829C394.055 68.5114 394.404 69.5532 394.47 70.624C394.47 72.6 392.913 73.392 390.996 72.408L348.957 50.896C347.946 50.3105 347.105 49.5215 346.501 48.593C345.898 47.6646 345.549 46.6227 345.483 45.552C345.483 43.576 347.04 42.776 348.957 43.768Z" fill="#EBEBEB"/>
<path d="M316.8 61.5119L322.479 64.4239C322.466 64.2027 322.466 63.9811 322.479 63.7599V62.2959C322.479 59.6879 324.531 58.6319 327.069 59.8959C328.146 60.4975 329.067 61.2966 329.769 62.2399C330.183 58.9599 333.072 57.7439 336.582 59.5439C338.582 60.7029 340.247 62.2644 341.441 64.1018C342.636 65.9392 343.327 68.0009 343.458 70.1199V72.3119C343.48 73.1856 343.28 74.0525 342.873 74.8479L347.589 77.2479C348.332 77.6763 348.951 78.2546 349.395 78.9358C349.839 79.617 350.096 80.3818 350.145 81.1679C350.145 82.6159 349.002 83.1999 347.589 82.4719L316.8 66.7439C316.058 66.3134 315.44 65.7333 314.998 65.0508C314.555 64.3683 314.3 63.6026 314.253 62.8159C314.217 61.3759 315.351 60.7999 316.8 61.5119Z" fill="#EBEBEB"/>
<path d="M353.214 285.816C354.618 286.776 354.465 288.144 352.773 289.016L260.1 336.592C259.055 337.062 257.9 337.306 256.729 337.306C255.559 337.306 254.404 337.062 253.359 336.592L76.131 245.656C74.412 244.776 74.277 243.392 75.735 242.456C74.8632 243.041 74.1451 243.788 73.6306 244.644C73.1162 245.501 72.8177 246.447 72.756 247.416V251.376C72.8203 252.417 73.1593 253.431 73.7456 254.334C74.3319 255.237 75.149 256.005 76.131 256.576L253.296 347.48C254.341 347.953 255.498 348.2 256.671 348.2C257.844 348.2 259.001 347.953 260.046 347.48L352.746 299.912C353.728 299.344 354.546 298.577 355.132 297.675C355.719 296.773 356.057 295.76 356.121 294.72V290.72C356.057 289.766 355.765 288.835 355.264 287.989C354.762 287.143 354.063 286.402 353.214 285.816V285.816Z" fill="#455A64"/>
<path d="M352.8 285.552L175.581 194.616C174.536 194.146 173.381 193.901 172.211 193.901C171.04 193.901 169.885 194.146 168.84 194.616L76.14 242.2C74.277 243.152 74.277 244.704 76.14 245.656L253.314 336.592C254.359 337.061 255.514 337.306 256.684 337.306C257.855 337.306 259.01 337.061 260.055 336.592L352.755 289.008C354.6 288.056 354.6 286.504 352.8 285.552ZM328.761 278.2C330.354 279 330.354 280.344 328.761 281.16L244.467 324.432C243.57 324.834 242.579 325.044 241.574 325.044C240.568 325.044 239.577 324.834 238.68 324.432L100.692 253.6C99.099 252.8 99.099 251.448 100.692 250.632L184.995 207.368C186.588 206.568 188.253 206.072 189.846 206.888L328.761 278.2Z" fill="#37474F"/>
<path d="M75.735 242.399C74.8632 242.984 74.1451 243.731 73.6306 244.588C73.1162 245.444 72.8177 246.39 72.756 247.359V251.319C72.821 252.361 73.1603 253.374 73.7465 254.277C74.3327 255.18 75.1495 255.948 76.131 256.519L253.296 347.479C254.338 347.968 255.502 348.216 256.68 348.199V337.303C255.505 337.323 254.344 337.078 253.305 336.591L76.131 245.655C74.412 244.799 74.277 243.391 75.735 242.399Z" fill="#263238"/>
<path d="M131.4 223.08C132.651 222.44 132.651 221.4 131.4 220.76C130.702 220.447 129.932 220.284 129.15 220.284C128.368 220.284 127.598 220.447 126.9 220.76C125.649 221.4 125.649 222.44 126.9 223.08C127.598 223.393 128.368 223.556 129.15 223.556C129.932 223.556 130.702 223.393 131.4 223.08V223.08Z" fill="black"/>
<path d="M302.976 310.096C305.919 308.592 305.919 306.144 302.976 304.64C301.328 303.891 299.503 303.501 297.652 303.501C295.802 303.501 293.977 303.891 292.329 304.64C289.386 306.144 289.386 308.592 292.329 310.096C293.977 310.844 295.802 311.235 297.652 311.235C299.503 311.235 301.328 310.844 302.976 310.096V310.096Z" stroke="#E6E6E6" stroke-miterlimit="10"/>
<path d="M129.141 230.776L146.601 221.824C147.636 221.288 147.69 220.448 146.718 219.944C146.151 219.703 145.529 219.584 144.902 219.593C144.274 219.603 143.657 219.742 143.1 220L125.64 228.952C124.605 229.488 124.551 230.328 125.523 230.832C126.09 231.072 126.712 231.191 127.339 231.182C127.967 231.172 128.584 231.033 129.141 230.776V230.776Z" fill="black"/>
<path d="M189.846 206.92C188.253 206.12 186.588 206.576 184.995 207.4L100.692 250.664C99.099 251.464 99.099 252.808 100.692 253.632L238.644 324.424C239.541 324.826 240.532 325.036 241.538 325.036C242.543 325.036 243.534 324.826 244.431 324.424L328.725 281.152C330.327 280.352 330.327 279.008 328.725 278.192L189.846 206.92Z" fill="#72C868"/>
<path opacity="0.85" d="M189.846 206.92C188.253 206.12 186.588 206.576 184.995 207.4L100.692 250.664C99.099 251.464 99.099 252.808 100.692 253.632L238.644 324.424C239.541 324.826 240.532 325.036 241.538 325.036C242.543 325.036 243.534 324.826 244.431 324.424L328.725 281.152C330.327 280.352 330.327 279.008 328.725 278.192L189.846 206.92Z" fill="white"/>
<path d="M110.403 254.551L109.503 254.087C109.462 254.073 109.426 254.049 109.401 254.017C109.376 253.985 109.362 253.946 109.362 253.907C109.362 253.868 109.376 253.83 109.401 253.798C109.426 253.766 109.462 253.741 109.503 253.727L109.602 253.679C109.71 253.628 109.831 253.602 109.953 253.602C110.075 253.602 110.196 253.628 110.304 253.679L111.204 254.135C111.393 254.239 111.393 254.399 111.204 254.495L111.105 254.551C110.996 254.598 110.876 254.623 110.754 254.623C110.632 254.623 110.512 254.598 110.403 254.551V254.551Z" fill="#455A64"/>
<path d="M112.005 253.727L110.448 252.927C110.259 252.831 110.259 252.671 110.448 252.567L110.547 252.519C110.656 252.472 110.776 252.447 110.898 252.447C111.02 252.447 111.14 252.472 111.249 252.519L112.806 253.319C112.995 253.415 112.995 253.575 112.806 253.679L112.707 253.727C112.598 253.775 112.478 253.799 112.356 253.799C112.234 253.799 112.114 253.775 112.005 253.727V253.727Z" fill="#455A64"/>
<path d="M113.607 252.904L111.402 251.776C111.204 251.672 111.204 251.512 111.402 251.416L111.501 251.36C111.61 251.313 111.73 251.288 111.852 251.288C111.974 251.288 112.094 251.313 112.203 251.36L114.408 252.496C114.449 252.51 114.485 252.534 114.51 252.566C114.535 252.599 114.549 252.637 114.549 252.676C114.549 252.715 114.535 252.754 114.51 252.786C114.485 252.818 114.449 252.842 114.408 252.856L114.309 252.904C114.201 252.955 114.08 252.982 113.958 252.982C113.836 252.982 113.715 252.955 113.607 252.904V252.904Z" fill="#455A64"/>
<path d="M115.2 252.087L111.393 250.127C111.195 250.031 111.195 249.871 111.393 249.767L111.492 249.719C111.601 249.67 111.721 249.645 111.843 249.645C111.965 249.645 112.085 249.67 112.194 249.719L115.992 251.671C116.19 251.775 116.19 251.935 115.992 252.031L115.902 252.087C115.793 252.135 115.673 252.159 115.551 252.159C115.429 252.159 115.309 252.135 115.2 252.087V252.087Z" fill="#455A64"/>
<path d="M119.799 249.991C119.738 249.998 119.677 249.983 119.628 249.951L119.07 249.663L117.27 250.583C117.231 250.606 117.186 250.619 117.14 250.619C117.093 250.619 117.048 250.606 117.009 250.583L116.802 250.479L116.712 250.423V250.343L116.622 248.335C116.616 248.306 116.616 248.276 116.622 248.247C116.652 248.217 116.689 248.192 116.73 248.175L116.973 248.047C117.037 248.014 117.107 247.993 117.18 247.983C117.247 247.984 117.312 248.001 117.369 248.031L119.322 249.031L119.718 248.831C119.777 248.796 119.845 248.774 119.916 248.767C119.98 248.767 120.043 248.784 120.096 248.815L120.231 248.887C120.294 248.887 120.321 248.943 120.312 248.975C120.303 249.007 120.312 249.031 120.195 249.071L119.799 249.279L120.357 249.567C120.42 249.567 120.447 249.623 120.438 249.655C120.429 249.687 120.393 249.719 120.312 249.759L120.006 249.911C119.948 249.956 119.876 249.984 119.799 249.991V249.991ZM118.71 249.359L117.315 248.647L117.405 250.031L118.71 249.359Z" fill="#455A64"/>
<path d="M121.59 248.728C120.96 248.755 120.335 248.618 119.79 248.336C119.232 248.048 118.98 247.736 119.025 247.4C119.07 247.064 119.421 246.736 120.06 246.408C120.312 246.275 120.577 246.162 120.852 246.072C121.094 245.989 121.344 245.927 121.599 245.888C121.637 245.875 121.678 245.875 121.716 245.888C121.72 245.901 121.72 245.915 121.716 245.928L121.797 246.136C121.806 246.144 121.811 246.156 121.811 246.168C121.811 246.179 121.806 246.191 121.797 246.2H121.698C121.31 246.268 120.939 246.395 120.6 246.576C120.168 246.792 119.934 247.024 119.898 247.256C119.862 247.488 120.06 247.72 120.492 247.936C120.887 248.15 121.343 248.259 121.806 248.248C122.264 248.233 122.71 248.114 123.102 247.904C123.242 247.831 123.378 247.751 123.507 247.664C123.61 247.599 123.701 247.521 123.777 247.432L122.877 246.968L122.13 247.352C122.066 247.385 121.996 247.406 121.923 247.416C121.859 247.414 121.797 247.397 121.743 247.368L121.617 247.304C121.557 247.272 121.53 247.24 121.536 247.208C121.536 247.208 121.581 247.152 121.653 247.112L122.85 246.496C122.921 246.458 123.001 246.436 123.084 246.432C123.158 246.432 123.229 246.452 123.291 246.488L124.587 247.152C124.623 247.165 124.655 247.187 124.677 247.216C124.677 247.216 124.677 247.256 124.677 247.288C124.394 247.664 124.002 247.965 123.543 248.16C122.955 248.489 122.284 248.684 121.59 248.728V248.728Z" fill="#455A64"/>
<path d="M146.502 233.184L148.617 234.272C148.707 234.311 148.805 234.332 148.905 234.332C149.005 234.332 149.103 234.311 149.193 234.272L151.326 233.184C151.479 233.096 151.479 232.968 151.326 232.888L149.202 231.8C149.114 231.756 149.015 231.733 148.914 231.733C148.813 231.733 148.714 231.756 148.626 231.8L146.502 232.888C146.34 232.968 146.34 233.096 146.502 233.184Z" fill="#455A64"/>
<path d="M147.969 231.704C147.689 231.583 147.38 231.523 147.069 231.528C146.757 231.521 146.448 231.581 146.169 231.704C145.755 231.92 145.755 232.248 146.169 232.456L146.898 232.832L147.429 232.736L146.7 232.368C146.635 232.346 146.58 232.307 146.54 232.256C146.501 232.206 146.48 232.146 146.48 232.084C146.48 232.022 146.501 231.962 146.54 231.912C146.58 231.861 146.635 231.822 146.7 231.8C146.816 231.744 146.946 231.714 147.078 231.712C147.208 231.709 147.336 231.739 147.447 231.8L148.176 232.176L148.716 232.08L147.969 231.704Z" fill="#455A64"/>
<path d="M186.588 211.856C186.232 211.845 185.878 211.916 185.562 212.064L180.162 214.824C179.694 215.056 179.694 215.432 180.162 215.672L182.124 216.672C182.44 216.819 182.794 216.89 183.15 216.88C183.316 216.879 183.482 216.865 183.645 216.84C183.829 216.813 184.006 216.756 184.167 216.672L189.567 213.92C190.026 213.68 190.026 213.304 189.567 213.072L187.605 212.064C187.292 211.916 186.942 211.845 186.588 211.856ZM183.168 216.656C183.014 216.653 182.862 216.618 182.727 216.552L180.774 215.544C180.699 215.52 180.634 215.476 180.588 215.418C180.542 215.36 180.517 215.291 180.517 215.22C180.517 215.149 180.542 215.079 180.588 215.021C180.634 214.963 180.699 214.919 180.774 214.896L186.174 212.144C186.26 212.097 186.354 212.064 186.453 212.048H186.615C186.767 212.052 186.916 212.09 187.047 212.16L189 213.16C189.075 213.183 189.14 213.227 189.186 213.285C189.232 213.343 189.257 213.413 189.257 213.484C189.257 213.555 189.232 213.624 189.186 213.682C189.14 213.74 189.075 213.784 189 213.808L183.6 216.568C183.469 216.637 183.32 216.675 183.168 216.68V216.656Z" fill="#455A64"/>
<path d="M183.321 216.343L183.249 216.303L181.449 215.399C181.394 215.381 181.346 215.348 181.313 215.306C181.279 215.263 181.261 215.212 181.261 215.159C181.261 215.107 181.279 215.056 181.313 215.013C181.346 214.97 181.394 214.938 181.449 214.919L186.291 212.439C186.321 212.421 186.355 212.407 186.39 212.399L186.462 212.439L188.262 213.343C188.314 213.363 188.359 213.396 188.39 213.438C188.422 213.48 188.438 213.529 188.438 213.579C188.438 213.63 188.422 213.679 188.39 213.721C188.359 213.763 188.314 213.796 188.262 213.815L183.42 216.303L183.321 216.343Z" fill="#455A64"/>
<path d="M187.884 211.936C188.07 211.897 188.263 211.893 188.451 211.925C188.638 211.956 188.816 212.023 188.973 212.12L189.333 212.311C189.738 212.511 189.909 212.767 189.72 212.879L189.369 213.071L187.569 212.12L187.884 211.936Z" fill="#455A64"/>
<path d="M157.131 258.944C158.454 258.895 159.747 258.578 160.911 258.016C163.107 256.888 163.674 255.352 160.191 253.424C160.074 254.006 159.807 254.556 159.41 255.031C159.013 255.506 158.498 255.892 157.905 256.16C154.917 257.696 151.515 258.088 148.77 256.688C146.025 255.288 146.97 253.208 149.976 251.672C151.91 250.691 154.1 250.179 156.327 250.186C158.554 250.193 160.74 250.719 162.666 251.712C167.751 254.32 166.608 257.08 163.008 258.912C161.124 259.85 159.026 260.397 156.87 260.512L157.131 258.944ZM158.4 252.592C155.763 251.576 153.522 251.72 151.821 252.592C150.39 253.32 150.102 254.384 151.686 255.192C152.479 255.573 153.375 255.755 154.276 255.717C155.177 255.679 156.049 255.423 156.798 254.976C157.303 254.767 157.726 254.428 158.011 254.003C158.297 253.578 158.432 253.086 158.4 252.592V252.592Z" fill="#455A64"/>
<path d="M164.7 247.56C165.237 247.271 165.843 247.099 166.469 247.06C167.096 247.021 167.723 247.116 168.3 247.336C169.2 247.816 169.029 248.616 167.877 249.2C167.332 249.496 166.715 249.672 166.077 249.712C165.44 249.753 164.801 249.656 164.214 249.432C163.287 248.96 163.521 248.152 164.7 247.56ZM171.729 251.168C172.266 250.879 172.873 250.709 173.499 250.671C174.126 250.634 174.753 250.73 175.329 250.952C176.229 251.424 176.058 252.224 174.906 252.816C174.36 253.11 173.743 253.285 173.106 253.325C172.469 253.366 171.83 253.271 171.243 253.048C170.325 252.576 170.55 251.76 171.702 251.2L171.729 251.168Z" fill="#455A64"/>
<path d="M172.917 246.808C168.498 244.536 168.498 242.176 172.116 240.312C175.734 238.448 180.36 238.464 184.77 240.728C189.18 242.992 189.27 245.424 185.67 247.288C182.07 249.152 177.345 249.08 172.917 246.808ZM181.746 242.272C178.047 240.376 175.671 240.392 173.97 241.264C172.269 242.136 172.233 243.36 175.932 245.264C179.631 247.168 182.169 247.2 183.843 246.344C185.517 245.488 185.454 244.176 181.746 242.272Z" fill="#455A64"/>
<path d="M186.993 239.584C182.565 237.312 182.565 234.952 186.183 233.096C189.801 231.24 194.436 231.248 198.837 233.504C203.238 235.76 203.391 238.208 199.737 240.064C196.083 241.92 191.412 241.856 186.993 239.584ZM195.822 235.056C192.114 233.152 189.738 233.168 188.037 234.04C186.336 234.912 186.3 236.136 190.008 238.04C193.716 239.944 196.245 239.968 197.91 239.112C199.575 238.256 199.521 236.952 195.822 235.056Z" fill="#455A64"/>
<path d="M164.304 276.504L235.116 240.168C235.953 239.792 236.878 239.596 237.816 239.596C238.754 239.596 239.679 239.792 240.516 240.168L258.615 249.456C260.109 250.256 260.109 251.464 258.615 252.232L187.83 288.568C186.993 288.944 186.068 289.14 185.13 289.14C184.192 289.14 183.267 288.944 182.43 288.568L164.304 279.28C162.81 278.512 162.81 277.272 164.304 276.504Z" fill="#72C868"/>
<path d="M171.9 277.736L184.572 284.232C184.932 284.397 185.332 284.484 185.738 284.484C186.143 284.484 186.543 284.397 186.903 284.232L205.578 274.632C206.226 274.296 206.226 273.76 205.578 273.432L192.906 266.928C192.544 266.766 192.145 266.682 191.741 266.682C191.336 266.682 190.937 266.766 190.575 266.928L171.9 276.528C171.755 276.567 171.628 276.648 171.537 276.756C171.447 276.865 171.398 276.997 171.398 277.132C171.398 277.267 171.447 277.398 171.537 277.507C171.628 277.616 171.755 277.696 171.9 277.736V277.736Z" fill="#FAFAFA"/>
<path d="M191.016 274.608L206.037 274.08L191.07 273.88L191.673 266.704L189.216 275.56L171.405 277.128L185.949 276.52L185.589 284.48L186.705 276.488L190.872 276.312L191.016 274.608Z" fill="#72C868"/>
<path d="M198.9 263.535L217.197 254.183C217.653 253.978 218.157 253.871 218.668 253.871C219.18 253.871 219.684 253.978 220.14 254.183C220.941 254.591 220.914 255.263 220.077 255.695L201.78 265.047C201.324 265.253 200.82 265.36 200.308 265.36C199.797 265.36 199.293 265.253 198.837 265.047C198.045 264.639 198.081 263.999 198.9 263.535Z" fill="#FAFAFA"/>
<path d="M204.543 266.399L241.623 247.351C242.079 247.146 242.583 247.039 243.095 247.039C243.606 247.039 244.11 247.146 244.566 247.351C245.367 247.759 245.34 248.439 244.503 248.863L207.423 267.911C206.965 268.116 206.46 268.223 205.947 268.223C205.434 268.223 204.929 268.116 204.471 267.911C203.679 267.527 203.706 266.855 204.543 266.399Z" fill="#FAFAFA"/>
<path d="M210.168 269.311L247.257 250.263C247.713 250.058 248.217 249.951 248.728 249.951C249.24 249.951 249.744 250.058 250.2 250.263C250.992 250.671 250.965 251.351 250.137 251.775L213.048 270.823C212.592 271.029 212.088 271.136 211.576 271.136C211.065 271.136 210.561 271.029 210.105 270.823C209.304 270.399 209.34 269.743 210.168 269.311Z" fill="#FAFAFA"/>
<path d="M156.195 145.232L276.237 83.6318L281.043 86.0958C281.698 86.479 282.243 86.9935 282.634 87.5979C283.025 88.2023 283.25 88.8798 283.293 89.5758V168.288C283.251 168.984 283.026 169.662 282.635 170.266C282.244 170.871 281.699 171.385 281.043 171.768L165.51 231.048C164.811 231.357 164.041 231.518 163.26 231.518C162.479 231.518 161.709 231.357 161.01 231.048L158.472 229.744C157.816 229.361 157.27 228.846 156.878 228.242C156.486 227.638 156.258 226.96 156.213 226.264L156.195 145.232Z" fill="#72C868"/>
<path opacity="0.05" d="M156.195 145.232L276.237 83.6318L281.043 86.0958C281.698 86.479 282.243 86.9935 282.634 87.5979C283.025 88.2023 283.25 88.8798 283.293 89.5758V168.288C283.251 168.984 283.026 169.662 282.635 170.266C282.244 170.871 281.699 171.385 281.043 171.768L165.51 231.048C164.811 231.357 164.041 231.518 163.26 231.518C162.479 231.518 161.709 231.357 161.01 231.048L158.472 229.744C157.816 229.361 157.27 228.846 156.878 228.242C156.486 227.638 156.258 226.96 156.213 226.264L156.195 145.232Z" fill="black"/>
<path d="M275.571 76.7036L276.066 76.4636L274.203 75.5036C274.041 75.4229 273.873 75.3533 273.699 75.2956L220.869 57.8956C220.145 57.6797 219.362 57.6741 218.634 57.8798C217.906 58.0854 217.27 58.4916 216.819 59.0396L157.716 135.752C156.798 137.074 156.275 138.583 156.195 140.136V145.232L157.995 146.176L276.21 83.6236V78.5276C276.193 77.8785 275.972 77.2465 275.571 76.7036V76.7036Z" fill="#72C868"/>
<path opacity="0.1" d="M219.258 59.4157C219.023 59.5794 218.816 59.7736 218.646 59.9917L159.543 136.704C159.057 137.382 158.687 138.121 158.445 138.896L156.645 137.952C156.778 137.557 156.937 137.17 157.122 136.792C157.203 136.632 157.284 136.48 157.374 136.328V136.256C157.468 136.095 157.573 135.94 157.689 135.792L216.81 59.0477C216.899 58.934 216.998 58.827 217.107 58.7277L217.422 58.4717L219.258 59.4157Z" fill="black"/>
<path opacity="0.35" d="M276.039 76.4639C275.879 76.3776 275.71 76.3052 275.535 76.2479L222.696 58.8399C222.115 58.6682 221.495 58.6309 220.893 58.7317C220.291 58.8325 219.729 59.068 219.258 59.4159L217.458 58.4719C217.933 58.1273 218.497 57.894 219.099 57.7934C219.701 57.6927 220.322 57.728 220.905 57.8959L273.735 75.2959C273.908 75.3533 274.073 75.4256 274.23 75.5119L276.039 76.4639Z" fill="white"/>
<path d="M157.401 136.216C157.497 136.056 157.602 135.901 157.716 135.752C157.602 135.901 157.497 136.056 157.401 136.216Z" fill="#72C868"/>
<path d="M217.116 58.7275C217.212 58.6341 217.318 58.5485 217.431 58.4717C217.316 58.5464 217.21 58.6322 217.116 58.7275V58.7275Z" fill="#72C868"/>
<path d="M156.6 137.951C156.733 137.554 156.892 137.165 157.077 136.784C156.892 137.165 156.733 137.554 156.6 137.951V137.951Z" fill="#72C868"/>
<path d="M157.104 136.752C157.185 136.592 157.275 136.44 157.356 136.296C157.275 136.44 157.185 136.592 157.104 136.752Z" fill="#72C868"/>
<path opacity="0.2" d="M157.356 136.296C157.356 136.296 157.356 136.24 157.356 136.216C157.356 136.192 157.374 136.272 157.356 136.296Z" fill="black"/>
<path opacity="0.2" d="M216.819 59.0393C216.905 58.9265 217.005 58.822 217.116 58.7275C217.002 58.8198 216.903 58.9246 216.819 59.0393V59.0393Z" fill="black"/>
<path d="M218.646 60.0003L159.552 136.72C158.627 138.038 158.1 139.545 158.022 141.096V146.192L278.064 84.5923V79.4723C278.019 78.7826 277.759 78.1176 277.312 77.5523C276.865 76.987 276.25 76.5437 275.535 76.2723L222.705 58.8723C221.981 58.6591 221.199 58.6532 220.471 58.8556C219.743 59.058 219.105 59.4584 218.646 60.0003V60.0003Z" fill="#72C868"/>
<path d="M171.09 220.328L167.238 218.352C166.92 218.136 166.67 217.852 166.513 217.525C166.355 217.198 166.295 216.841 166.338 216.488V109.8C166.388 108.717 166.761 107.665 167.418 106.752L171.333 108.752C170.671 109.669 170.298 110.727 170.253 111.816V218.464C170.205 218.812 170.257 219.165 170.403 219.491C170.549 219.817 170.786 220.105 171.09 220.328V220.328Z" fill="#E0E0E0"/>
<path d="M173.493 106.72L269.919 57.2484C271.719 56.3044 273.222 57.0644 273.222 58.9444V165.6C273.162 166.621 272.831 167.615 272.257 168.5C271.683 169.386 270.882 170.138 269.919 170.696L173.493 220.16C171.693 221.096 170.19 220.336 170.19 218.456V111.816C170.252 110.796 170.584 109.803 171.157 108.918C171.731 108.033 172.531 107.28 173.493 106.72V106.72Z" fill="#F0F0F0"/>
<path d="M268.344 55.0321L272.124 56.9841C271.758 56.8628 271.364 56.8249 270.977 56.8738C270.59 56.9227 270.223 57.0569 269.91 57.2641L173.493 106.728C172.568 107.224 171.8 107.92 171.261 108.752L167.346 106.752C167.889 105.921 168.652 105.221 169.569 104.712L265.995 55.2001C266.33 54.9809 266.726 54.8479 267.14 54.8154C267.555 54.7829 267.971 54.8524 268.344 55.0161V55.0321Z" fill="#FAFAFA"/>
<path d="M181.017 112.304L261.198 71.1524C262.278 70.6004 263.151 70.9924 263.151 72.0324C263.102 72.6138 262.9 73.1768 262.56 73.6758C262.221 74.1747 261.754 74.5956 261.198 74.9044L181.017 116.056C179.937 116.608 179.064 116.216 179.064 115.184C179.112 114.602 179.313 114.037 179.653 113.537C179.992 113.036 180.459 112.614 181.017 112.304Z" fill="#E0E0E0"/>
<path d="M181.017 119.784L261.198 78.6319C262.278 78.0799 263.151 78.4719 263.151 79.5119C263.102 80.0933 262.9 80.6563 262.56 81.1553C262.221 81.6542 261.754 82.0751 261.198 82.3839L181.017 123.536C179.937 124.088 179.064 123.696 179.064 122.664C179.112 122.081 179.313 121.516 179.653 121.016C179.992 120.516 180.459 120.093 181.017 119.784V119.784Z" fill="#E0E0E0"/>
<path d="M181.017 127.264L261.198 86.1116C262.278 85.5596 263.151 85.9516 263.151 86.9836C263.103 87.5664 262.902 88.131 262.562 88.6315C262.223 89.1319 261.756 89.5541 261.198 89.8636L181.017 131.016C179.937 131.568 179.064 131.176 179.064 130.144C179.112 129.561 179.313 128.996 179.653 128.496C179.992 127.995 180.459 127.573 181.017 127.264V127.264Z" fill="#E0E0E0"/>
<path d="M181.017 134.744L261.198 93.5999C262.278 93.0479 263.151 93.4399 263.151 94.4719C263.103 95.0547 262.902 95.6193 262.562 96.1197C262.223 96.6202 261.756 97.0424 261.198 97.3519L181.017 138.504C179.937 139.056 179.064 138.664 179.064 137.624C179.112 137.041 179.313 136.476 179.653 135.976C179.992 135.476 180.459 135.053 181.017 134.744V134.744Z" fill="#E0E0E0"/>
<path d="M181.017 142.224L261.198 101.072C262.278 100.52 263.151 100.912 263.151 101.944C263.103 102.526 262.902 103.091 262.562 103.591C262.223 104.092 261.756 104.514 261.198 104.824L181.017 145.976C179.937 146.528 179.064 146.136 179.064 145.096C179.113 144.514 179.315 143.951 179.655 143.452C179.994 142.953 180.461 142.532 181.017 142.224Z" fill="#E0E0E0"/>
<path d="M181.017 149.704L261.198 108.552C262.278 108 263.151 108.392 263.151 109.424C263.103 110.007 262.902 110.571 262.562 111.072C262.223 111.572 261.756 111.995 261.198 112.304L181.017 153.456C179.937 154.008 179.064 153.616 179.064 152.576C179.113 151.995 179.315 151.432 179.655 150.933C179.994 150.434 180.461 150.013 181.017 149.704Z" fill="#E0E0E0"/>
<path d="M181.017 157.184L261.198 116C262.278 115.448 263.151 115.84 263.151 116.872C263.103 117.455 262.902 118.02 262.562 118.52C262.223 119.021 261.756 119.443 261.198 119.752L181.017 160.904C179.937 161.456 179.064 161.064 179.064 160.024C179.118 159.448 179.323 158.892 179.662 158.399C180.001 157.906 180.465 157.49 181.017 157.184V157.184Z" fill="#E0E0E0"/>
<path d="M181.017 164.664L261.198 123.512C262.278 122.952 263.151 123.352 263.151 124.384C263.103 124.966 262.902 125.531 262.562 126.031C262.223 126.532 261.756 126.954 261.198 127.264L181.017 168.416C179.937 168.968 179.064 168.576 179.064 167.536C179.113 166.954 179.315 166.391 179.655 165.892C179.994 165.393 180.461 164.972 181.017 164.664Z" fill="#E0E0E0"/>
<path d="M280.251 169.328C280.215 169.385 280.173 169.439 280.125 169.488L230.103 149.768C228.204 149.021 226.065 148.909 224.08 149.453C222.096 149.997 220.399 151.16 219.303 152.728L165.825 229L163.845 230.016C163.625 230.153 163.369 230.238 163.102 230.265C162.835 230.292 162.564 230.258 162.315 230.168L217.314 151.72C218.413 150.155 220.109 148.993 222.092 148.448C224.075 147.903 226.213 148.011 228.114 148.752L280.251 169.328Z" fill="#72C868"/>
<path opacity="0.4" d="M214.362 159.664L214.488 159.568L165.807 229.008L163.827 230.024C163.606 230.158 163.35 230.243 163.083 230.269C162.817 230.296 162.547 230.264 162.297 230.176L212.4 158.64L214.362 159.664Z" fill="white"/>
<path opacity="0.4" d="M280.251 169.336C280.215 169.393 280.173 169.447 280.125 169.496L230.094 149.768C228.195 149.021 226.056 148.909 224.071 149.453C222.087 149.997 220.39 151.16 219.294 152.728L217.314 151.704C218.417 150.143 220.115 148.986 222.098 148.446C224.081 147.905 226.216 148.017 228.114 148.76L280.251 169.336Z" fill="white"/>
<path d="M283.257 89.0644C283.149 88.4884 282.807 88.3284 282.357 88.6004C282.135 88.7479 281.94 88.9262 281.781 89.1284L281.529 89.4404L232.2 150.528L224.829 159.656C224.354 160.188 223.726 160.595 223.011 160.833C222.296 161.072 221.521 161.132 220.77 161.008L214.407 159.664L165.807 149.392C165.48 149.333 165.144 149.333 164.817 149.392C164.69 149.415 164.566 149.45 164.448 149.496L165.789 148.808L212.589 158.704L218.97 160C219.721 160.126 220.496 160.066 221.212 159.828C221.927 159.59 222.556 159.182 223.029 158.648L230.4 149.528L280.008 88.1284C280.159 87.9458 280.349 87.791 280.566 87.6724L276.3 85.4884L278.1 84.5684L281.07 86.0884C281.639 86.4297 282.126 86.8688 282.502 87.3799C282.877 87.891 283.134 88.4637 283.257 89.0644V89.0644Z" fill="#72C868"/>
<path opacity="0.4" d="M232.2 150.528L224.829 159.656C224.354 160.188 223.726 160.594 223.011 160.833C222.296 161.071 221.521 161.131 220.77 161.008L214.407 159.664L214.533 159.568L214.839 159.136L219.006 160.016C219.757 160.141 220.532 160.081 221.248 159.843C221.963 159.605 222.592 159.197 223.065 158.664L230.364 149.64L232.2 150.528Z" fill="white"/>
<path opacity="0.1" d="M281.034 86.0884L278.064 84.5684L276.264 85.4884L280.557 87.6884C280.34 87.8076 280.151 87.9624 279.999 88.1444L230.4 149.544L230.328 149.632L232.128 150.52L281.52 89.4404L281.772 89.1284C281.931 88.9262 282.126 88.7479 282.348 88.6004C282.789 88.3284 283.131 88.4884 283.248 89.0644C283.122 88.4618 282.861 87.8879 282.481 87.3767C282.1 86.8654 281.608 86.4273 281.034 86.0884V86.0884Z" fill="black"/>
<path d="M166.779 150.672L156.195 145.232V226.264C156.24 226.961 156.468 227.638 156.86 228.243C157.252 228.847 157.798 229.361 158.454 229.744L160.992 231.048C161.691 231.358 162.461 231.519 163.242 231.519C164.023 231.519 164.793 231.358 165.492 231.048L166.761 230.392L166.779 150.672Z" fill="#72C868"/>
<path opacity="0.15" d="M166.779 150.672L156.195 145.232V226.264C156.24 226.961 156.468 227.638 156.86 228.243C157.252 228.847 157.798 229.361 158.454 229.744L160.992 231.048C161.691 231.358 162.461 231.519 163.242 231.519C164.023 231.519 164.793 231.358 165.492 231.048L166.761 230.392L166.779 150.672Z" fill="black"/>
<path d="M281.529 89.4404V167.296C281.505 168.018 281.263 168.72 280.827 169.328C280.496 169.845 280.045 170.292 279.504 170.64L279.423 170.688L279.27 170.776L163.746 230.056C163.607 230.132 163.459 230.194 163.305 230.24C163.295 230.121 163.295 230 163.305 229.88V151.2C163.285 150.919 163.342 150.637 163.472 150.379C163.602 150.121 163.8 149.895 164.049 149.72C164.299 149.545 164.593 149.427 164.905 149.376C165.218 149.324 165.539 149.341 165.843 149.424L214.443 159.696L220.806 161.04C221.557 161.164 222.332 161.104 223.047 160.865C223.762 160.627 224.39 160.22 224.865 159.688L232.2 150.528L281.529 89.4404Z" fill="#455A64"/>
<path d="M283.302 89.6004V168.312C283.274 169.033 283.031 169.734 282.6 170.344C282.264 170.86 281.814 171.309 281.277 171.664L281.187 171.704C281.141 171.736 281.093 171.766 281.043 171.792L165.519 231.04C165.298 231.18 165.042 231.268 164.773 231.296C164.504 231.324 164.231 231.291 163.98 231.2C163.788 231.101 163.627 230.962 163.509 230.794C163.392 230.627 163.321 230.437 163.305 230.24C163.295 230.12 163.295 230 163.305 229.88V151.2C163.285 150.918 163.342 150.637 163.472 150.379C163.602 150.121 163.8 149.895 164.049 149.72C164.299 149.545 164.593 149.427 164.905 149.376C165.218 149.324 165.539 149.341 165.843 149.424L214.443 159.696L220.806 161.04C221.557 161.164 222.332 161.104 223.047 160.865C223.762 160.627 224.39 160.22 224.865 159.688L232.2 150.528L281.565 89.4404L281.817 89.1284C282.6 88.0964 283.302 88.2884 283.302 89.6004Z" fill="#72C868"/>
<path d="M281.043 171.76L281.187 171.672L281.277 171.632C281.814 171.277 282.264 170.828 282.6 170.312C283.02 169.712 283.259 169.026 283.293 168.32L232.2 150.528L266.4 179.272L281.043 171.76Z" fill="#72C868"/>
<path opacity="0.2" d="M281.043 171.76L281.187 171.672L281.277 171.632C281.814 171.277 282.264 170.828 282.6 170.312C283.02 169.712 283.259 169.026 283.293 168.32L232.2 150.528L266.4 179.272L281.043 171.76Z" fill="black"/>
<path d="M163.26 229.888C163.227 230.144 163.275 230.404 163.399 230.637C163.523 230.87 163.718 231.068 163.962 231.208C164.213 231.298 164.486 231.331 164.755 231.303C165.024 231.275 165.28 231.187 165.501 231.048L205.272 210.64L214.353 159.672L163.26 228.576V229.888Z" fill="#72C868"/>
<path opacity="0.15" d="M219.267 152.72L163.953 231.2C163.709 231.06 163.514 230.862 163.39 230.629C163.266 230.396 163.218 230.136 163.251 229.88V228.576L212.058 159.2L212.436 158.664L217.287 151.752L219.267 152.72Z" fill="black"/>
<path d="M282.6 170.312C282.264 170.827 281.814 171.276 281.277 171.632L281.187 171.672L165.519 231.04C165.298 231.18 165.042 231.267 164.773 231.295C164.504 231.323 164.231 231.291 163.98 231.2L219.294 152.696C220.403 151.121 222.114 149.954 224.112 149.409C226.11 148.864 228.263 148.977 230.175 149.728L282.6 170.312Z" fill="#72C868"/>
<path d="M282.6 170.32C282.269 170.836 281.818 171.283 281.277 171.632L281.196 171.68L165.51 231.048C165.288 231.185 165.031 231.27 164.762 231.297C164.493 231.323 164.222 231.29 163.971 231.2L165.51 229.024L279.189 170.672L279.279 170.624C279.758 170.312 280.164 169.921 280.476 169.472L282.6 170.32Z" fill="#72C868"/>
<path opacity="0.15" d="M156.6 137.952L158.4 138.896C158.145 139.606 158.002 140.344 157.977 141.088V146.176L156.177 145.232V140.136C156.203 139.394 156.346 138.659 156.6 137.952V137.952Z" fill="black"/>
<path d="M167.472 149.136L165.78 148.776L164.439 149.464L162.585 148.512L158.022 146.176L159.795 145.24L167.472 149.136Z" fill="#72C868"/>
<path opacity="0.1" d="M167.472 149.136L159.804 145.248L158.004 146.184L162.567 148.52L164.421 149.472C164.529 149.424 164.644 149.392 164.763 149.376C165.09 149.317 165.426 149.317 165.753 149.376L169.488 150.176L212.058 159.2L212.436 158.664L167.472 149.136Z" fill="black"/>
<path d="M304.65 152.272L296.109 147.872L296.037 147.832C292.311 145.96 287.19 146.232 281.529 149.152C270.135 155 260.892 169.224 260.892 180.92C260.892 186.76 263.205 190.864 266.922 192.784L274.707 196.784L276.507 194.072C278.587 193.663 280.584 192.972 282.429 192.024C293.823 186.176 303.066 171.952 303.066 160.256C303.064 158.676 302.847 157.102 302.418 155.568L304.65 152.272Z" fill="#F28F8F"/>
<path opacity="0.15" d="M261.648 174.769C261.144 176.792 260.882 178.856 260.865 180.929C260.865 186.769 263.178 190.873 266.895 192.793L274.68 196.793L276.48 194.081C278.56 193.671 280.557 192.98 282.402 192.033C284.419 190.984 286.304 189.747 288.027 188.345L261.648 174.769Z" fill="black"/>
<path d="M289.629 153.321C278.235 159.169 268.992 173.393 268.992 185.089C268.992 196.785 278.235 201.529 289.629 195.681C301.023 189.833 310.266 175.609 310.266 163.913C310.266 152.217 301.032 147.473 289.629 153.321Z" fill="#FFA8A7"/>
<path d="M297.783 169.6V165.104C297.783 159.976 294.273 157.616 289.953 159.84C285.624 162.064 282.114 168.016 282.114 173.144V177.144C282.019 179.92 281.11 182.625 279.477 184.992C279.075 185.62 278.855 186.326 278.838 187.048V187.048C278.838 188.336 279.738 188.936 280.809 188.376L299.106 178.984C299.706 178.601 300.197 178.098 300.539 177.516C300.881 176.934 301.066 176.289 301.077 175.632V175.632C301.105 175.381 301.068 175.128 300.968 174.892C300.868 174.657 300.708 174.444 300.501 174.272V174.272C298.845 173.648 297.783 172 297.783 169.6Z" fill="white"/>
<path d="M293.706 183.2C293.706 185.664 292.023 188.52 289.953 189.6C287.883 190.68 286.191 189.536 286.191 187.08L293.706 183.2Z" fill="white"/>
</svg>
