<svg width="202" height="204" viewBox="0 0 202 204" fill="none" xmlns="http://www.w3.org/2000/svg">
<path d="M168.799 94.9493C169.261 88.5568 168.952 82.1313 167.878 75.8141C166.859 70.1428 165.093 64.6349 162.626 59.437C150.24 33.3005 120.861 16.548 92.3301 22.358C76.5741 25.5608 57.2953 36.6992 52.3018 53.1334C48.7709 64.7492 50.2818 77.4706 44.6541 88.507C38.8769 99.878 33.031 109.947 34.5541 123.346C36.1701 137.7 45.8136 150.237 57.8043 158.112C72.6917 167.904 92.3221 173.306 110.046 172.049C144.866 169.585 166.545 129.499 168.799 94.9493Z" fill="#789EF3"/>
<path opacity="0.8" d="M168.799 94.9493C169.261 88.5568 168.952 82.1313 167.878 75.8141C166.859 70.1428 165.093 64.6349 162.626 59.437C150.24 33.3005 120.861 16.548 92.3301 22.358C76.5741 25.5608 57.2953 36.6992 52.3018 53.1334C48.7709 64.7492 50.2818 77.4706 44.6541 88.507C38.8769 99.878 33.031 109.947 34.5541 123.346C36.1701 137.7 45.8136 150.237 57.8043 158.112C72.6917 167.904 92.3221 173.306 110.046 172.049C144.866 169.585 166.545 129.499 168.799 94.9493Z" fill="white"/>
<path opacity="0.2" d="M168.149 78.5195H152.861C151.915 78.5195 151.149 79.294 151.149 80.2495V88.2871C151.149 89.2425 151.915 90.017 152.861 90.017H168.149C169.095 90.017 169.862 89.2425 169.862 88.2871V80.2495C169.862 79.294 169.095 78.5195 168.149 78.5195Z" fill="#263238"/>
<path d="M151.468 79.7836L159.604 84.0023C159.86 84.1322 160.142 84.1999 160.428 84.1999C160.715 84.1999 160.997 84.1322 161.253 84.0023L169.599 79.751" stroke="white" stroke-width="0.75" stroke-linecap="round" stroke-linejoin="round"/>
<path opacity="0.2" d="M51.001 77.711C50.9399 77.6312 50.8616 77.5665 50.7719 77.5219C50.6823 77.4774 50.5837 77.4542 50.4838 77.454H33.7825L33.128 75.4997C33.0825 75.3742 33 75.2659 32.8917 75.1893C32.7833 75.1127 32.6543 75.0715 32.522 75.0713H28.28C28.1169 75.0843 27.9646 75.1589 27.8535 75.2803C27.7425 75.4017 27.6808 75.5609 27.6808 75.7261C27.6808 75.8914 27.7425 76.0506 27.8535 76.1719C27.9646 76.2933 28.1169 76.368 28.28 76.381H32.0412L36.1176 88.7393C36.1601 88.8699 36.2424 88.9835 36.3527 89.0641C36.4629 89.1447 36.5956 89.1881 36.7317 89.1881H36.97C36.7521 89.5288 36.6291 89.9225 36.6141 90.3279C36.599 90.7332 36.6924 91.1351 36.8845 91.4914C37.0766 91.8476 37.3602 92.145 37.7055 92.3521C38.0508 92.5593 38.445 92.6687 38.8466 92.6687C39.2483 92.6687 39.6425 92.5593 39.9878 92.3521C40.3331 92.145 40.6167 91.8476 40.8087 91.4914C41.0008 91.1351 41.0942 90.7332 41.0792 90.3279C41.0641 89.9225 40.9412 89.5288 40.7232 89.1881H43.838C43.6201 89.5288 43.4971 89.9225 43.4821 90.3279C43.467 90.7332 43.5604 91.1351 43.7525 91.4914C43.9446 91.8476 44.2282 92.145 44.5735 92.3521C44.9188 92.5593 45.313 92.6687 45.7146 92.6687C46.1163 92.6687 46.5105 92.5593 46.8558 92.3521C47.2011 92.145 47.4847 91.8476 47.6767 91.4914C47.8688 91.1351 47.9622 90.7332 47.9472 90.3279C47.9321 89.9225 47.8092 89.5288 47.5912 89.1881H48.0922C48.2553 89.1751 48.4076 89.1004 48.5186 88.9791C48.6297 88.8577 48.6914 88.6985 48.6914 88.5332C48.6914 88.368 48.6297 88.2088 48.5186 88.0874C48.4076 87.9661 48.2553 87.8914 48.0922 87.8784H37.1842L36.4731 85.7201H48.5931C48.7358 85.7197 48.8744 85.672 48.9875 85.5842C49.1007 85.4965 49.1821 85.3736 49.2193 85.2346L51.0656 78.2986C51.1014 78.2024 51.1141 78.0991 51.1029 77.997C51.0917 77.8949 51.0567 77.7969 51.001 77.711V77.711ZM38.881 91.326C38.6956 91.326 38.5144 91.2705 38.3602 91.1665C38.2061 91.0625 38.086 90.9146 38.015 90.7417C37.9441 90.5687 37.9255 90.3784 37.9617 90.1948C37.9979 90.0112 38.0871 89.8425 38.2182 89.7101C38.3493 89.5778 38.5163 89.4876 38.6981 89.4511C38.8799 89.4146 39.0684 89.4333 39.2396 89.5049C39.4109 89.5766 39.5573 89.6979 39.6603 89.8536C39.7633 90.0092 39.8182 90.1922 39.8182 90.3795C39.8183 90.5055 39.7934 90.6303 39.745 90.7465C39.6967 90.8626 39.6258 90.9679 39.5366 91.0561C39.4474 91.1443 39.3417 91.2135 39.2257 91.2599C39.1096 91.3062 38.9855 91.3287 38.8608 91.326H38.881ZM45.749 91.326C45.5636 91.326 45.3824 91.2705 45.2282 91.1665C45.0741 91.0625 44.954 90.9146 44.883 90.7417C44.8121 90.5687 44.7935 90.3784 44.8297 90.1948C44.8659 90.0112 44.9551 89.8425 45.0862 89.7101C45.2173 89.5778 45.3843 89.4876 45.5661 89.4511C45.7479 89.4146 45.9364 89.4333 46.1076 89.5049C46.2789 89.5766 46.4253 89.6979 46.5283 89.8536C46.6313 90.0092 46.6862 90.1922 46.6862 90.3795C46.6863 90.5055 46.6614 90.6303 46.613 90.7465C46.5647 90.8626 46.4938 90.9679 46.4046 91.0561C46.3154 91.1443 46.2097 91.2135 46.0937 91.2599C45.9776 91.3062 45.8535 91.3287 45.7288 91.326H45.749ZM47.4781 84.39H45.0783V78.7637H47.4781V84.39ZM41.3817 78.7637H43.7815V84.39H41.3817V78.7637ZM40.0849 84.39H37.6609V78.7637H40.0849V84.39ZM34.2148 78.7637H36.36V84.39H36.0691L34.2148 78.7637ZM48.7588 82.0766V78.7637H49.6435L48.7588 82.0766Z" fill="#263238"/>
<path opacity="0.2" d="M153.52 46.5117L155.019 45.8221L154.7 44.0065L153.047 43.876C152.838 43.3154 152.56 42.7836 152.219 42.2929L153.072 40.8405L151.783 39.5349L150.332 40.408C149.498 39.8352 148.554 39.4459 147.561 39.2656L147.157 37.5928H145.331L144.927 39.2737C144.36 39.383 143.808 39.561 143.283 39.8041L141.978 38.6617L140.483 39.7185L141.097 41.3505C140.697 41.7665 140.346 42.2279 140.051 42.7254L138.33 42.5459L137.703 44.2799L139.13 45.255C139.06 45.6592 139.025 46.0687 139.024 46.479C139.024 46.6545 139.024 46.8258 139.045 46.9972L137.55 47.8417L138.023 49.6247H139.715C139.966 50.1584 140.279 50.6597 140.649 51.118L139.901 52.6317L141.299 53.8149L142.656 52.8357C143.166 53.1323 143.708 53.3665 144.272 53.5333L144.543 55.1653L146.365 55.3285L146.911 53.7618C147.508 53.7095 148.097 53.5821 148.664 53.3824L149.811 54.5574L151.395 53.6353L150.959 52.0482C151.416 51.6544 151.823 51.2049 152.171 50.71L153.787 51.0078L154.57 49.3677L153.31 48.315C153.453 47.7248 153.523 47.1192 153.52 46.5117V46.5117ZM150.817 46.479C150.817 47.3901 150.55 48.2806 150.049 49.0381C149.547 49.7957 148.835 50.3861 148.002 50.7347C147.168 51.0833 146.251 51.1746 145.366 50.9968C144.481 50.8191 143.669 50.3804 143.031 49.7362C142.393 49.092 141.959 48.2712 141.783 47.3777C141.607 46.4841 141.697 45.5579 142.042 44.7163C142.387 43.8746 142.972 43.1551 143.722 42.649C144.472 42.1428 145.354 41.8727 146.256 41.8727C146.859 41.87 147.457 41.9882 148.015 42.2206C148.572 42.453 149.079 42.7948 149.504 43.2264C149.93 43.6579 150.267 44.1705 150.495 44.7344C150.723 45.2984 150.838 45.9025 150.833 46.5117L150.817 46.479Z" fill="#263238"/>
<path opacity="0.2" d="M147.828 127.385C147.737 127.555 147.716 127.753 147.767 127.938C147.818 128.124 147.938 128.282 148.102 128.38C148.301 128.502 148.539 128.54 148.765 128.488C148.991 128.435 149.188 128.296 149.314 128.099L151.443 124.782L151.484 124.708L154.223 124.415L153.944 124.965C153.901 125.046 153.889 125.14 153.909 125.229C153.929 125.318 153.98 125.397 154.053 125.451C154.095 125.48 154.142 125.5 154.191 125.51C154.241 125.52 154.292 125.519 154.341 125.507C154.39 125.496 154.436 125.474 154.477 125.443C154.517 125.412 154.55 125.373 154.574 125.329L155.128 124.321L157.188 124.101L156.784 124.868C156.742 124.95 156.733 125.045 156.757 125.135C156.782 125.224 156.839 125.301 156.918 125.349C156.927 125.393 156.95 125.432 156.983 125.462C157.015 125.493 157.056 125.512 157.1 125.518C157.144 125.525 157.189 125.517 157.228 125.497C157.268 125.477 157.3 125.445 157.322 125.406L158.093 124.003L159.459 123.856C159.71 123.83 159.952 123.748 160.168 123.616C160.384 123.484 160.568 123.306 160.707 123.093L160.933 122.75L156.752 122.309C156.752 122.309 154.041 122.061 153.617 120.714L155.706 116.773L155.726 116.72L158.623 116.402L159.257 115.553L156.481 114.863L156.671 114.402C156.675 114.393 156.676 114.382 156.673 114.372C156.67 114.362 156.664 114.353 156.655 114.347C156.646 114.342 156.636 114.339 156.626 114.34C156.615 114.341 156.606 114.346 156.598 114.353L156.194 114.761L154.271 112.521L153.722 113.554L154.881 116.087L154.809 116.161L152.55 119.543C152.126 119.902 151.338 120.359 150.684 119.608C149.69 118.519 147.076 114.272 147.076 114.272L146.818 114.921C146.652 115.345 146.652 115.818 146.818 116.242L147.278 117.466L146.652 118.646C146.609 118.726 146.597 118.82 146.617 118.909C146.637 118.998 146.688 119.077 146.761 119.131C146.803 119.16 146.851 119.179 146.901 119.188C146.951 119.197 147.002 119.196 147.051 119.184C147.1 119.172 147.147 119.15 147.187 119.119C147.228 119.088 147.261 119.049 147.286 119.005L147.609 118.417L148.288 120.208L147.69 121.383C147.647 121.465 147.634 121.559 147.655 121.65C147.676 121.74 147.729 121.819 147.803 121.873C147.845 121.901 147.892 121.921 147.942 121.93C147.992 121.939 148.043 121.937 148.092 121.925C148.141 121.913 148.187 121.891 148.227 121.861C148.267 121.83 148.3 121.791 148.325 121.746L148.672 121.175L149.706 123.897L147.828 127.385Z" fill="#263238"/>
<path opacity="0.2" d="M72.3443 36.2012H53.1866V47.8373H72.3443V36.2012Z" fill="#263238"/>
<path d="M62.4746 45.2676C64.3555 45.2676 65.8803 43.7277 65.8803 41.8281C65.8803 39.9286 64.3555 38.3887 62.4746 38.3887C60.5936 38.3887 59.0688 39.9286 59.0688 41.8281C59.0688 43.7277 60.5936 45.2676 62.4746 45.2676Z" fill="white"/>
<path opacity="0.2" d="M64.947 41.8273L61.202 39.6445V44.0101L64.947 41.8273Z" fill="#263238"/>
<path opacity="0.2" d="M49.1345 114.093V123.216C48.7612 123.016 48.3447 122.914 47.9225 122.918C46.7509 122.918 45.8055 123.656 45.8055 124.55C45.8055 125.443 46.7509 126.202 47.9225 126.202C49.894 126.202 50.0394 124.839 50.0394 124.839V116.826L55.6631 116.01V122.13C55.2888 121.934 54.8728 121.833 54.4511 121.837C53.2795 121.837 52.3342 122.575 52.3342 123.489C52.3342 124.403 53.2795 125.121 54.4511 125.121C55.4894 125.121 56.354 124.529 56.5277 123.758L56.56 115.872V113.016L49.1345 114.093Z" fill="#263238"/>
<path opacity="0.2" d="M110.312 31.0075V29.9508C110.312 29.7766 110.244 29.6095 110.122 29.4863C110 29.3632 109.834 29.2939 109.662 29.2939H108.559C108.386 29.2939 108.221 29.3632 108.099 29.4863C107.977 29.6095 107.908 29.7766 107.908 29.9508V33.7738H97.0004V29.9508C97.0004 29.7766 96.9319 29.6095 96.8099 29.4863C96.6879 29.3632 96.5225 29.2939 96.35 29.2939H95.1743C95.0039 29.2972 94.8416 29.3678 94.7222 29.4906C94.6028 29.6135 94.536 29.7787 94.536 29.9508V31.0075H92.8029C92.6068 31.0075 92.4187 31.0862 92.2801 31.2262C92.1414 31.3663 92.0635 31.5562 92.0635 31.7542V36.7195C92.0635 36.9179 92.1413 37.1083 92.2798 37.2489C92.4184 37.3896 92.6064 37.4692 92.8029 37.4703H94.536V38.5147C94.537 38.6855 94.6038 38.8491 94.7222 38.9709C94.8406 39.0928 95.0013 39.1633 95.1703 39.1675H96.3459C96.5184 39.1675 96.6839 39.0983 96.8059 38.9751C96.9278 38.852 96.9964 38.6849 96.9964 38.5107V35.4955H107.904V38.4903C107.902 38.5786 107.917 38.6665 107.948 38.7489C107.98 38.8312 108.028 38.9062 108.089 38.9695C108.15 39.0327 108.223 39.0828 108.304 39.1169C108.385 39.1509 108.471 39.1681 108.559 39.1675H109.662C109.834 39.1675 110 39.0983 110.122 38.9751C110.244 38.852 110.312 38.6849 110.312 38.5107V37.4539H111.977C112.17 37.4529 112.356 37.3756 112.494 37.2384C112.632 37.1013 112.712 36.9151 112.716 36.7195V31.746C112.714 31.5494 112.635 31.3616 112.497 31.2233C112.358 31.0851 112.171 31.0075 111.977 31.0075H110.312Z" fill="#263238"/>
<path opacity="0.2" d="M102.45 134.024C127.244 134.024 147.343 113.725 147.343 88.6866C147.343 63.6477 127.244 43.3496 102.45 43.3496C77.6569 43.3496 57.5579 63.6477 57.5579 88.6866C57.5579 113.725 77.6569 134.024 102.45 134.024Z" fill="#263238"/>
<path d="M102.45 130.466C125.298 130.466 143.82 111.76 143.82 88.6864C143.82 65.6124 125.298 46.9072 102.45 46.9072C79.6025 46.9072 61.0807 65.6124 61.0807 88.6864C61.0807 111.76 79.6025 130.466 102.45 130.466Z" fill="#789EF3" stroke="#263238" stroke-miterlimit="10"/>
<g opacity="0.2">
<path d="M102.45 90.0532C102.27 90.0544 102.091 90.0189 101.924 89.9488C101.758 89.8787 101.607 89.7755 101.481 89.6452L75.4591 62.6561C75.2215 62.394 75.0943 62.0488 75.1044 61.6936C75.1146 61.3384 75.2613 61.0012 75.5135 60.7534C75.7657 60.5056 76.1035 60.3667 76.4554 60.3662C76.8072 60.3657 77.1454 60.5036 77.3983 60.7507L103.424 87.7195C103.61 87.912 103.736 88.1557 103.785 88.42C103.835 88.6843 103.806 88.9575 103.703 89.2054C103.599 89.4533 103.425 89.6648 103.203 89.8134C102.981 89.9621 102.721 90.0412 102.454 90.041L102.45 90.0532Z" fill="#263238"/>
</g>
<path opacity="0.2" d="M90.7788 97.9397C90.4876 97.9411 90.2037 97.8476 89.9694 97.6731C89.735 97.4986 89.5626 97.2524 89.4777 96.9711C89.3929 96.6898 89.4002 96.3884 89.4984 96.1116C89.5967 95.8348 89.7808 95.5974 90.0233 95.4346L101.699 87.5479C101.997 87.3571 102.358 87.2917 102.703 87.3656C103.049 87.4395 103.352 87.647 103.548 87.9436C103.745 88.2403 103.818 88.6026 103.753 88.9533C103.689 89.304 103.491 89.6152 103.202 89.8205L91.5302 97.7071C91.3079 97.8578 91.0465 97.9387 90.7788 97.9397V97.9397Z" fill="#263238"/>
<path d="M104.127 88.6865C104.128 88.3515 104.03 88.0237 103.846 87.7447C103.663 87.4658 103.401 87.2481 103.095 87.1193C102.788 86.9905 102.451 86.9564 102.126 87.0213C101.8 87.0862 101.501 87.2471 101.266 87.4837C101.031 87.7204 100.871 88.0221 100.806 88.3506C100.741 88.6792 100.774 89.0198 100.901 89.3295C101.028 89.6391 101.243 89.9038 101.518 90.09C101.794 90.2763 102.119 90.3757 102.45 90.3757C102.894 90.3757 103.32 90.1978 103.634 89.8812C103.949 89.5645 104.126 89.1349 104.127 88.6865V88.6865Z" fill="#263238" stroke="#263238" stroke-miterlimit="10" stroke-linecap="round"/>
<path d="M102.483 50.6445V56.2913" stroke="#263238" stroke-width="2" stroke-miterlimit="10" stroke-linecap="round"/>
<path d="M102.483 120.642V126.288" stroke="#263238" stroke-width="2" stroke-miterlimit="10" stroke-linecap="round"/>
<path d="M139.933 88.4658H134.338" stroke="#263238" stroke-width="2" stroke-miterlimit="10" stroke-linecap="round"/>
<path d="M70.6232 88.4658H65.0319" stroke="#263238" stroke-width="2" stroke-miterlimit="10" stroke-linecap="round"/>
<path d="M122.121 56.2627L119.188 61.073" stroke="#263238" stroke-width="2" stroke-miterlimit="10" stroke-linecap="round"/>
<path d="M85.7732 115.859L82.8402 120.67" stroke="#263238" stroke-width="2" stroke-miterlimit="10" stroke-linecap="round"/>
<path d="M135.429 70.4854L130.508 73.17" stroke="#263238" stroke-width="2" stroke-miterlimit="10" stroke-linecap="round"/>
<path d="M74.4532 103.762L69.5324 106.446" stroke="#263238" stroke-width="2" stroke-miterlimit="10" stroke-linecap="round"/>
<path d="M134.37 108.303L129.607 105.337" stroke="#263238" stroke-width="2" stroke-miterlimit="10" stroke-linecap="round"/>
<path d="M75.3581 71.5959L70.595 68.6338" stroke="#263238" stroke-width="2" stroke-miterlimit="10" stroke-linecap="round"/>
<path d="M120.287 121.743L117.629 116.77" stroke="#263238" stroke-width="2" stroke-miterlimit="10" stroke-linecap="round"/>
<path d="M87.3367 60.1638L84.6784 55.1943" stroke="#263238" stroke-width="2" stroke-miterlimit="10" stroke-linecap="round"/>
<path d="M101.602 184.795C119.387 184.795 133.805 183.074 133.805 180.952C133.805 178.829 119.387 177.108 101.602 177.108C83.8168 177.108 69.3991 178.829 69.3991 180.952C69.3991 183.074 83.8168 184.795 101.602 184.795Z" fill="#789EF3"/>
<path opacity="0.5" d="M101.602 184.795C119.387 184.795 133.805 183.074 133.805 180.952C133.805 178.829 119.387 177.108 101.602 177.108C83.8168 177.108 69.3991 178.829 69.3991 180.952C69.3991 183.074 83.8168 184.795 101.602 184.795Z" fill="white"/>
<path d="M110.244 123.767C110.199 122.861 110.244 121.466 110.28 120.662C110.387 120.012 110.441 119.355 110.441 118.696C110.441 109.948 107.1 109.214 102.972 109.214C98.8426 109.214 95.5016 110.617 95.5016 118.696C95.5016 118.908 95.5016 119.104 95.5218 119.328C95.5581 119.679 95.8975 123.033 95.5864 124.298C95.2551 125.632 92.6089 125.901 91.0899 129.104C89.5708 132.307 92.8756 136.982 103.65 137.582C114.425 138.182 115.544 130.911 115.544 128.443C115.544 125.975 110.312 125.101 110.244 123.767Z" fill="#263238"/>
<path d="M95.239 119.361L95.5056 119.333V119.296L95.239 119.361Z" fill="#263238"/>
<path d="M96.758 131.376C96.758 131.376 92.3988 131.617 90.8515 132.494C89.3042 133.371 89.0133 138.549 89.0133 138.549L84.3754 148.602C84.3754 148.602 71.9039 139.817 70.8414 138.94C69.7789 138.063 69.488 137.378 68.4174 136.692C67.3468 136.007 66.967 136.011 65.6136 136.011C64.2602 136.011 64.0663 136.207 64.1633 136.594C64.2603 136.982 64.7451 137.084 65.1289 137.084C65.5532 137.118 65.9745 137.184 66.3893 137.28L62.519 138.842C61.5534 139.23 61.7474 137.667 60.8788 137.667C60.0102 137.667 60.1031 139.915 61.5534 140.988C63.0038 142.061 63.9775 141.768 65.1289 141.67C66.2803 141.572 68.9992 141.184 68.9992 141.184C68.9992 141.184 76.4408 147.822 79.1476 150.262C81.8544 152.702 85.5268 155.044 86.8802 154.069C88.2336 153.094 93.3442 143.526 93.3442 143.526L96.6287 134.742C96.6287 134.742 97.5458 132.898 96.758 131.376Z" fill="white"/>
<path opacity="0.1" d="M96.758 131.376C96.758 131.376 92.3988 131.617 90.8515 132.494C89.3042 133.371 89.0133 138.549 89.0133 138.549L84.3754 148.602C84.3754 148.602 71.9039 139.817 70.8414 138.94C69.7789 138.063 69.488 137.378 68.4174 136.692C67.3468 136.007 66.967 136.011 65.6136 136.011C64.2602 136.011 64.0663 136.207 64.1633 136.594C64.2603 136.982 64.7451 137.084 65.1289 137.084C65.5532 137.118 65.9745 137.184 66.3893 137.28L62.519 138.842C61.5534 139.23 61.7474 137.667 60.8788 137.667C60.0102 137.667 60.1031 139.915 61.5534 140.988C63.0038 142.061 63.9775 141.768 65.1289 141.67C66.2803 141.572 68.9992 141.184 68.9992 141.184C68.9992 141.184 76.4408 147.822 79.1476 150.262C81.8544 152.702 85.5268 155.044 86.8802 154.069C88.2336 153.094 93.3442 143.526 93.3442 143.526L96.6287 134.742C96.6287 134.742 97.5458 132.898 96.758 131.376Z" fill="#18143C"/>
<path d="M96.758 131.376C96.758 131.376 92.3988 131.617 90.8515 132.494C89.3042 133.371 89.0133 138.549 89.0133 138.549L84.3754 148.602C84.3754 148.602 71.9039 139.817 70.8414 138.94C69.7789 138.063 69.488 137.378 68.4174 136.692C67.3468 136.007 66.967 136.011 65.6136 136.011C64.2602 136.011 64.0663 136.207 64.1633 136.594C64.2603 136.982 64.7451 137.084 65.1289 137.084C65.5532 137.118 65.9745 137.184 66.3893 137.28L62.519 138.842C61.5534 139.23 61.7474 137.667 60.8788 137.667C60.0102 137.667 60.1031 139.915 61.5534 140.988C63.0038 142.061 63.9775 141.768 65.1289 141.67C66.2803 141.572 68.9992 141.184 68.9992 141.184C68.9992 141.184 76.4408 147.822 79.1476 150.262C81.8544 152.702 85.5268 155.044 86.8802 154.069C88.2336 153.094 93.3442 143.526 93.3442 143.526L96.6287 134.742C96.6287 134.742 97.5458 132.898 96.758 131.376Z" stroke="#263238" stroke-miterlimit="10" stroke-linecap="round"/>
<path d="M61.8322 141.205C61.8322 141.205 59.9496 139.663 60.9636 138.153C61.2141 137.778 61.7716 138.345 61.9332 139.377C62.0948 140.41 62.6039 140.809 62.8665 140.883" fill="white"/>
<path opacity="0.1" d="M61.8322 141.205C61.8322 141.205 59.9496 139.663 60.9636 138.153C61.2141 137.778 61.7716 138.345 61.9332 139.377C62.0948 140.41 62.6039 140.809 62.8665 140.883" fill="#18143C"/>
<path d="M61.8322 141.205C61.8322 141.205 59.9496 139.663 60.9636 138.153C61.2141 137.778 61.7716 138.345 61.9332 139.377C62.0948 140.41 62.6039 140.809 62.8665 140.883" stroke="#263238" stroke-miterlimit="10" stroke-linecap="round"/>
<path d="M63.2381 140.867C62.7897 140.867 62.8139 139.643 61.9696 139.059C61.2989 138.582 61.3838 139.52 61.5413 140.283C61.603 140.596 61.7566 140.883 61.9822 141.107C62.2078 141.33 62.4948 141.48 62.8059 141.536V141.536C63.0952 141.609 63.3963 141.622 63.6906 141.573" fill="white"/>
<path opacity="0.1" d="M63.2381 140.867C62.7897 140.867 62.8139 139.643 61.9696 139.059C61.2989 138.582 61.3838 139.52 61.5413 140.283C61.603 140.596 61.7566 140.883 61.9822 141.107C62.2078 141.33 62.4948 141.48 62.8059 141.536V141.536C63.0952 141.609 63.3963 141.622 63.6906 141.573" fill="#18143C"/>
<path d="M63.2381 140.867C62.7897 140.867 62.8139 139.643 61.9696 139.059C61.2989 138.582 61.3838 139.52 61.5413 140.283C61.603 140.596 61.7566 140.883 61.9822 141.107C62.2078 141.33 62.4948 141.48 62.8059 141.536V141.536C63.0952 141.609 63.3963 141.622 63.6906 141.573" stroke="#263238" stroke-miterlimit="10" stroke-linecap="round"/>
<path d="M68.9103 138.872C68.9103 138.872 68.276 138.419 67.0438 138.835C65.8116 139.251 64.3572 141.059 64.0219 140.908C63.7082 140.726 63.47 140.436 63.3512 140.092C63.1614 139.716 62.7937 139.174 62.5432 139.61C61.9857 140.565 63.5048 141.65 63.5048 141.65C63.5048 141.65 63.7148 141.83 64.8905 141.687C66.0661 141.544 68.7204 141.169 68.7204 141.169" fill="white"/>
<path opacity="0.1" d="M68.9103 138.872C68.9103 138.872 68.276 138.419 67.0438 138.835C65.8116 139.251 64.3572 141.059 64.0219 140.908C63.7082 140.726 63.47 140.436 63.3512 140.092C63.1614 139.716 62.7937 139.174 62.5432 139.61C61.9857 140.565 63.5048 141.65 63.5048 141.65C63.5048 141.65 63.7148 141.83 64.8905 141.687C66.0661 141.544 68.7204 141.169 68.7204 141.169" fill="#18143C"/>
<path d="M68.9103 138.872C68.9103 138.872 68.276 138.419 67.0438 138.835C65.8116 139.251 64.3572 141.059 64.0219 140.908C63.7082 140.726 63.47 140.436 63.3512 140.092C63.1614 139.716 62.7937 139.174 62.5432 139.61C61.9857 140.565 63.5048 141.65 63.5048 141.65C63.5048 141.65 63.7148 141.83 64.8905 141.687C66.0661 141.544 68.7204 141.169 68.7204 141.169" stroke="#263238" stroke-miterlimit="10" stroke-linecap="round"/>
<path d="M93.4169 141.433L92.007 137.357" stroke="#263238" stroke-miterlimit="10" stroke-linecap="round"/>
<path d="M108.074 131.287C108.074 131.287 112.668 131.618 114.215 132.511C115.762 133.405 116.053 138.566 116.053 138.566L120.691 148.619C120.691 148.619 133.162 139.835 134.225 138.958C135.287 138.08 135.578 137.395 136.649 136.709C137.72 136.024 138.099 136.028 139.453 136.028C140.806 136.028 141 136.224 140.903 136.612C140.806 136.999 140.321 137.101 139.933 137.101C139.511 137.136 139.091 137.201 138.677 137.297L142.543 138.86C143.513 139.247 143.319 137.685 144.188 137.685C145.056 137.685 144.963 139.933 143.513 141.006C142.063 142.079 141.089 141.785 139.933 141.687C138.778 141.589 136.067 141.202 136.067 141.202C136.067 141.202 128.626 147.84 125.919 150.28C123.212 152.719 119.54 155.061 118.186 154.086C116.833 153.111 111.722 143.543 111.722 143.543L108.438 134.759C108.438 134.759 107.29 132.809 108.074 131.287Z" fill="white"/>
<path opacity="0.1" d="M108.074 131.287C108.074 131.287 112.668 131.618 114.215 132.511C115.762 133.405 116.053 138.566 116.053 138.566L120.691 148.619C120.691 148.619 133.162 139.835 134.225 138.958C135.287 138.08 135.578 137.395 136.649 136.709C137.72 136.024 138.099 136.028 139.453 136.028C140.806 136.028 141 136.224 140.903 136.612C140.806 136.999 140.321 137.101 139.933 137.101C139.511 137.136 139.091 137.201 138.677 137.297L142.543 138.86C143.513 139.247 143.319 137.685 144.188 137.685C145.056 137.685 144.963 139.933 143.513 141.006C142.063 142.079 141.089 141.785 139.933 141.687C138.778 141.589 136.067 141.202 136.067 141.202C136.067 141.202 128.626 147.84 125.919 150.28C123.212 152.719 119.54 155.061 118.186 154.086C116.833 153.111 111.722 143.543 111.722 143.543L108.438 134.759C108.438 134.759 107.29 132.809 108.074 131.287Z" fill="#18143C"/>
<path d="M108.074 131.287C108.074 131.287 112.668 131.618 114.215 132.511C115.762 133.405 116.053 138.566 116.053 138.566L120.691 148.619C120.691 148.619 133.162 139.835 134.225 138.958C135.287 138.08 135.578 137.395 136.649 136.709C137.72 136.024 138.099 136.028 139.453 136.028C140.806 136.028 141 136.224 140.903 136.612C140.806 136.999 140.321 137.101 139.933 137.101C139.511 137.136 139.091 137.201 138.677 137.297L142.543 138.86C143.513 139.247 143.319 137.685 144.188 137.685C145.056 137.685 144.963 139.933 143.513 141.006C142.063 142.079 141.089 141.785 139.933 141.687C138.778 141.589 136.067 141.202 136.067 141.202C136.067 141.202 128.626 147.84 125.919 150.28C123.212 152.719 119.54 155.061 118.186 154.086C116.833 153.111 111.722 143.543 111.722 143.543L108.438 134.759C108.438 134.759 107.29 132.809 108.074 131.287Z" stroke="#263238" stroke-miterlimit="10" stroke-linecap="round"/>
<path d="M111.722 140.581L112.845 137.264" stroke="#263238" stroke-miterlimit="10" stroke-linecap="round"/>
<path d="M143.699 140.65C143.699 140.65 144.507 138.345 144.103 138.153C143.699 137.961 143.295 138.345 143.133 139.377C142.972 140.409 142.463 140.809 142.2 140.883" fill="white"/>
<path opacity="0.1" d="M144.252 140.152C144.252 140.152 144.515 138.345 144.103 138.153C143.691 137.961 143.295 138.345 143.133 139.377C142.972 140.409 142.463 140.809 142.2 140.883" fill="#18143C"/>
<path d="M143.699 140.65C143.699 140.65 144.507 138.345 144.103 138.153C143.699 137.961 143.295 138.345 143.133 139.377C142.972 140.409 142.463 140.809 142.2 140.883" stroke="#263238" stroke-miterlimit="10" stroke-linecap="round"/>
<path d="M143.085 141.062C143.085 141.062 144.103 138.153 142.923 138.924C142.054 139.491 142.277 140.866 141.828 140.866" fill="white"/>
<path opacity="0.1" d="M143.319 141.095C143.319 141.095 144.103 138.154 142.915 138.925C142.046 139.492 142.269 140.867 141.82 140.867" fill="#18143C"/>
<path d="M143.085 141.062C143.085 141.062 144.103 138.153 142.923 138.924C142.054 139.491 142.277 140.866 141.828 140.866" stroke="#263238" stroke-miterlimit="10" stroke-linecap="round"/>
<path d="M136.148 138.872C136.148 138.872 136.782 138.419 138.014 138.835C139.247 139.251 140.701 141.059 141.036 140.908C141.35 140.726 141.588 140.436 141.707 140.092C141.893 139.716 142.232 139.492 142.454 139.941C142.677 140.39 142.006 141.716 142.006 141.716C142.006 141.716 141.602 142.005 140.612 141.773C139.495 141.501 138.359 141.312 137.215 141.206" fill="white"/>
<path opacity="0.1" d="M136.148 138.872C136.148 138.872 136.782 138.419 138.014 138.835C139.247 139.251 140.701 141.059 141.036 140.908C141.35 140.726 141.588 140.436 141.707 140.092C141.893 139.716 142.232 139.492 142.454 139.941C142.677 140.39 142.006 141.716 142.006 141.716C142.006 141.716 141.602 142.005 140.612 141.773C139.622 141.54 136.948 140.822 136.338 140.822" fill="#18143C"/>
<path d="M136.148 138.872C136.148 138.872 136.782 138.419 138.014 138.835C139.247 139.251 140.701 141.059 141.036 140.908C141.35 140.726 141.588 140.436 141.707 140.092C141.893 139.716 142.232 139.492 142.454 139.941C142.677 140.39 142.006 141.716 142.006 141.716C142.006 141.716 141.602 142.005 140.612 141.773C139.495 141.501 138.359 141.312 137.215 141.206" stroke="#263238" stroke-miterlimit="10" stroke-linecap="round"/>
<path d="M100.725 125.436C100.725 125.436 100.527 127.708 99.6022 129.242C98.677 130.776 96.7742 131.376 96.7742 131.376L93.0089 143.061L94.9764 150.96C94.9764 150.96 91.4697 156.346 90.092 159.618C88.7144 162.89 90.3708 166.591 91.8252 168.125C93.2796 169.659 95.2107 171.739 100.139 171.544C107.007 171.27 111.855 171.903 114.057 169.3C116.259 166.697 116.481 161.78 113.863 158.071C112.28 155.815 110.118 150.94 110.118 150.94L112.259 142.8L108.979 131.376C108.979 131.376 107.003 131.262 105.816 129.793C104.628 128.324 104.891 125.652 104.891 125.652L100.725 125.436Z" fill="white"/>
<path opacity="0.1" d="M100.725 125.436C100.725 125.436 100.527 127.708 99.6022 129.242C98.677 130.776 96.7742 131.376 96.7742 131.376L93.0089 143.061L94.9764 150.96C94.9764 150.96 91.4697 156.346 90.092 159.618C88.7144 162.89 90.3708 166.591 91.8252 168.125C93.2796 169.659 95.2107 171.739 100.139 171.544C107.007 171.27 111.855 171.903 114.057 169.3C116.259 166.697 116.481 161.78 113.863 158.071C112.28 155.815 110.118 150.94 110.118 150.94L112.259 142.8L108.979 131.376C108.979 131.376 107.003 131.262 105.816 129.793C104.628 128.324 104.891 125.652 104.891 125.652L100.725 125.436Z" fill="#18143C"/>
<path d="M100.725 125.436C100.725 125.436 100.527 127.708 99.6022 129.242C98.677 130.776 96.7742 131.376 96.7742 131.376L93.0089 143.061L94.9764 150.96C94.9764 150.96 91.4697 156.346 90.092 159.618C88.7144 162.89 90.3708 166.591 91.8252 168.125C93.2796 169.659 95.2107 171.739 100.139 171.544C107.007 171.27 111.855 171.903 114.057 169.3C116.259 166.697 116.481 161.78 113.863 158.071C112.28 155.815 110.118 150.94 110.118 150.94L112.259 142.8L108.979 131.376C108.979 131.376 107.003 131.262 105.816 129.793C104.628 128.324 104.891 125.652 104.891 125.652L100.725 125.436Z" stroke="#263238" stroke-miterlimit="10" stroke-linecap="round"/>
<path d="M112.259 142.8L108.979 131.376C108.65 131.353 108.324 131.298 108.005 131.213C108.385 133.869 107.933 135.199 107.933 135.199C107.868 135.782 107.665 136.341 107.343 136.828C107.02 137.316 106.587 137.719 106.078 138.002C104.297 139.071 100.923 139.271 98.8063 137.537C97.1903 136.227 97.4933 132.641 97.7316 130.956C97.4199 131.125 97.0941 131.265 96.758 131.376L92.9927 143.061L94.9764 150.96H110.11L112.259 142.8Z" fill="#263238" stroke="#263238" stroke-miterlimit="10" stroke-linecap="round"/>
<path d="M97.5216 120.136C97.5216 120.136 96.3096 118.537 95.8813 119.728C95.4531 120.92 97.5822 121.976 97.5822 121.976L97.5216 120.136Z" fill="white"/>
<path opacity="0.1" d="M97.5216 120.136C97.5216 120.136 96.3096 118.537 95.8813 119.728C95.4531 120.92 97.5822 121.976 97.5822 121.976L97.5216 120.136Z" fill="#18143C"/>
<path d="M97.5216 120.136C97.5216 120.136 96.3096 118.537 95.8813 119.728C95.4531 120.92 97.5822 121.976 97.5822 121.976L97.5216 120.136Z" stroke="#263238" stroke-miterlimit="10" stroke-linecap="round"/>
<path d="M108.24 120.136C108.24 120.136 109.472 118.537 109.88 119.728C110.288 120.92 108.183 121.976 108.183 121.976L108.24 120.136Z" fill="white"/>
<path opacity="0.1" d="M108.24 120.136C108.24 120.136 109.472 118.537 109.88 119.728C110.288 120.92 108.183 121.976 108.183 121.976L108.24 120.136Z" fill="#18143C"/>
<path d="M108.24 120.136C108.24 120.136 109.472 118.537 109.88 119.728C110.288 120.92 108.183 121.976 108.183 121.976L108.24 120.136Z" stroke="#263238" stroke-miterlimit="10" stroke-linecap="round"/>
<path d="M102.935 127.031C101.525 127.031 100.173 126.466 99.1757 125.459C98.1787 124.452 97.6185 123.086 97.6185 121.662V113.425C97.618 113.162 97.6688 112.901 97.7681 112.658C97.8673 112.415 98.013 112.194 98.1969 112.008C98.3808 111.822 98.5992 111.675 98.8396 111.574C99.0801 111.473 99.3378 111.421 99.5981 111.421H106.252C106.516 111.416 106.777 111.465 107.022 111.563C107.267 111.662 107.49 111.808 107.678 111.995C107.866 112.181 108.016 112.404 108.118 112.649C108.22 112.895 108.272 113.158 108.272 113.425V121.674C108.27 122.38 108.13 123.078 107.861 123.729C107.591 124.38 107.198 124.972 106.702 125.469C106.207 125.966 105.619 126.36 104.973 126.629C104.326 126.897 103.634 127.033 102.935 127.031V127.031Z" fill="white"/>
<path opacity="0.1" d="M102.935 127.031C101.525 127.031 100.173 126.466 99.1757 125.459C98.1787 124.452 97.6185 123.086 97.6185 121.662V113.425C97.618 113.162 97.6688 112.901 97.7681 112.658C97.8673 112.415 98.013 112.194 98.1969 112.008C98.3808 111.822 98.5992 111.675 98.8396 111.574C99.0801 111.473 99.3378 111.421 99.5981 111.421H106.252C106.516 111.416 106.777 111.465 107.022 111.563C107.267 111.662 107.49 111.808 107.678 111.995C107.866 112.181 108.016 112.404 108.118 112.649C108.22 112.895 108.272 113.158 108.272 113.425V121.674C108.27 122.38 108.13 123.078 107.861 123.729C107.591 124.38 107.198 124.972 106.702 125.469C106.207 125.966 105.619 126.36 104.973 126.629C104.326 126.897 103.634 127.033 102.935 127.031V127.031Z" fill="#18143C"/>
<path d="M102.935 127.031C101.525 127.031 100.173 126.466 99.1757 125.459C98.1787 124.452 97.6185 123.086 97.6185 121.662V113.425C97.618 113.162 97.6688 112.901 97.7681 112.658C97.8673 112.415 98.013 112.194 98.1969 112.008C98.3808 111.822 98.5992 111.675 98.8396 111.574C99.0801 111.473 99.3378 111.421 99.5981 111.421H106.252C106.516 111.416 106.777 111.465 107.022 111.563C107.267 111.662 107.49 111.808 107.678 111.995C107.866 112.181 108.016 112.404 108.118 112.649C108.22 112.895 108.272 113.158 108.272 113.425V121.674C108.27 122.38 108.13 123.078 107.861 123.729C107.591 124.38 107.198 124.972 106.702 125.469C106.207 125.966 105.619 126.36 104.973 126.629C104.326 126.897 103.634 127.033 102.935 127.031V127.031Z" stroke="#263238" stroke-miterlimit="10" stroke-linecap="round"/>
<path d="M98.98 118.006C99.3447 118.25 99.7726 118.38 100.21 118.38C100.648 118.38 101.076 118.25 101.44 118.006" stroke="#263238" stroke-miterlimit="10" stroke-linecap="round"/>
<path d="M104.491 118.006C104.854 118.25 105.282 118.381 105.719 118.381C106.156 118.381 106.583 118.25 106.947 118.006" stroke="#263238" stroke-miterlimit="10" stroke-linecap="round"/>
<path d="M103.436 117.121L103.788 120.548H102.382" stroke="#263238" stroke-miterlimit="10" stroke-linecap="round"/>
<path d="M102.438 122.498H103.844" stroke="#263238" stroke-miterlimit="10" stroke-linecap="round"/>
<path d="M102.988 111.409H99.5981C99.3378 111.409 99.0801 111.461 98.8396 111.562C98.5992 111.662 98.3808 111.81 98.1969 111.996C98.013 112.182 97.8673 112.403 97.7681 112.646C97.6688 112.889 97.618 113.15 97.6185 113.412V117.492C99.788 115.587 102.313 112.311 102.988 111.409Z" fill="#263238" stroke="#263238" stroke-miterlimit="10"/>
<path d="M108.272 117.647V113.424C108.272 112.893 108.063 112.383 107.691 112.008C107.319 111.632 106.814 111.421 106.288 111.421H103.254C103.953 113.657 106.656 116.28 108.272 117.647Z" fill="#263238" stroke="#263238" stroke-miterlimit="10"/>
<path d="M98.7497 116.411C98.7497 116.411 99.384 115.285 101.404 115.465" stroke="#263238" stroke-width="2" stroke-miterlimit="10" stroke-linecap="round"/>
<path d="M104.078 115.464C104.616 115.238 105.215 115.209 105.771 115.382C106.327 115.555 106.806 115.919 107.125 116.411" stroke="#263238" stroke-width="2" stroke-miterlimit="10" stroke-linecap="round"/>
<path d="M90.092 159.618C88.7023 162.882 90.3708 166.591 91.8252 168.125C93.2796 169.659 95.2107 171.739 100.139 171.544C107.007 171.27 111.855 171.903 114.057 169.3C116.259 166.697 116.481 161.78 113.863 158.071C113.271 157.193 112.732 156.281 112.247 155.338H92.2938C91.4802 156.721 90.7451 158.15 90.092 159.618V159.618Z" fill="#263238" stroke="#263238" stroke-miterlimit="10" stroke-linecap="round"/>
<path d="M100.903 166.24C97.4246 162.596 91.1101 160.773 88.0155 160.25C84.9208 159.728 79.2527 156.578 79.2527 156.578C79.2527 156.578 75.8995 156.464 76.158 160.499C76.4166 164.534 86.0803 169.222 89.8213 171.303C91.5018 172.261 93.3849 172.797 95.3131 172.868C97.2412 172.939 99.1581 172.542 100.903 171.711" fill="#263238"/>
<path d="M100.903 166.24C97.4246 162.596 91.1101 160.773 88.0155 160.25C84.9208 159.728 79.2527 156.578 79.2527 156.578C79.2527 156.578 75.8995 156.464 76.158 160.499C76.4166 164.534 86.0803 169.222 89.8213 171.303C91.5018 172.261 93.3849 172.797 95.3131 172.868C97.2412 172.939 99.1581 172.542 100.903 171.711" stroke="#263238" stroke-miterlimit="10" stroke-linecap="round"/>
<path d="M103.081 166.37C106.559 162.727 112.874 160.903 115.968 160.381C119.063 159.859 123.874 157.198 123.874 157.198C123.874 157.198 128.084 156.607 127.826 160.642C127.567 164.677 117.903 169.361 114.162 171.446C112.482 172.402 110.598 172.938 108.671 173.009C106.743 173.08 104.826 172.684 103.081 171.854" fill="#263238"/>
<path d="M103.081 166.37C106.559 162.727 112.874 160.903 115.968 160.381C119.063 159.859 123.874 157.198 123.874 157.198C123.874 157.198 128.084 156.607 127.826 160.642C127.567 164.677 117.903 169.361 114.162 171.446C112.482 172.402 110.598 172.938 108.671 173.009C106.743 173.08 104.826 172.684 103.081 171.854" stroke="#263238" stroke-miterlimit="10" stroke-linecap="round"/>
<path d="M117.6 172.74C117.6 172.74 118.077 172.421 117.839 171.618C117.6 170.814 116.328 171.454 115.451 171.454C114.574 171.454 111.233 171.132 109.646 170.973C108.284 170.834 106.058 170.875 105.44 170.887C105.53 171.876 105.329 172.869 104.862 173.743L105.173 173.776C107.88 174.045 109.056 174.098 109.884 174.274C111.395 174.596 113.063 175.881 114.732 175.804C116.4 175.726 117.915 174.58 117.915 173.874C117.932 173.472 117.822 173.074 117.6 172.74V172.74Z" fill="white"/>
<path opacity="0.1" d="M117.6 172.74C117.6 172.74 118.077 172.421 117.839 171.618C117.6 170.814 116.328 171.454 115.451 171.454C114.574 171.454 111.233 171.132 109.646 170.973C108.284 170.834 106.058 170.875 105.44 170.887C105.53 171.876 105.329 172.869 104.862 173.743L105.173 173.776C107.88 174.045 109.056 174.098 109.884 174.274C111.395 174.596 113.063 175.881 114.732 175.804C116.4 175.726 117.915 174.58 117.915 173.874C117.932 173.472 117.822 173.074 117.6 172.74V172.74Z" fill="#18143C"/>
<path d="M117.6 172.74C117.6 172.74 118.077 172.421 117.839 171.618C117.6 170.814 116.328 171.454 115.451 171.454C114.574 171.454 111.233 171.132 109.646 170.973C108.284 170.834 106.058 170.875 105.44 170.887C105.53 171.876 105.329 172.869 104.862 173.743L105.173 173.776C107.88 174.045 109.056 174.098 109.884 174.274C111.395 174.596 113.063 175.881 114.732 175.804C116.4 175.726 117.915 174.58 117.915 173.874C117.932 173.472 117.822 173.074 117.6 172.74V172.74Z" stroke="#263238" stroke-miterlimit="10" stroke-linecap="round"/>
<path d="M117.6 172.739C117.136 172.819 116.662 172.819 116.198 172.739" stroke="#263238" stroke-miterlimit="10" stroke-linecap="round"/>
<path d="M117.92 173.865C117.302 173.913 116.682 173.913 116.065 173.865" stroke="#263238" stroke-miterlimit="10" stroke-linecap="round"/>
<path d="M115.754 174.584C116.189 174.829 116.695 174.913 117.184 174.821" stroke="#263238" stroke-miterlimit="10" stroke-linecap="round"/>
<path d="M115.14 175.11C115.552 175.31 116.013 175.383 116.465 175.318" stroke="#263238" stroke-miterlimit="10" stroke-linecap="round"/>
<path d="M104.862 173.735C105.329 172.861 105.53 171.867 105.44 170.879H105.266C105.266 170.879 99.1416 169.606 94.0512 166.464C88.9608 163.322 82.513 158.512 79.2527 156.582C75.9924 154.652 72.8856 157.545 73.1927 160.601C73.4997 163.657 75.9762 165.26 80.4324 167.129C84.8885 168.998 93.0048 171.87 97.2994 172.751C99.5254 173.196 102.394 173.502 104.862 173.735Z" fill="#263238" stroke="#263238" stroke-miterlimit="10" stroke-linecap="round"/>
<path d="M97.7074 174.584C97.2423 173.71 97.0427 172.716 97.1337 171.728H97.3034C97.3034 171.728 103.428 170.443 108.522 167.309C113.617 164.176 120.057 159.353 123.321 157.424C126.585 155.494 129.684 158.391 129.381 161.442C129.078 164.494 126.597 166.102 122.141 167.95C117.685 169.798 109.573 172.691 105.274 173.576C103.044 174.041 100.192 174.347 97.7074 174.584Z" fill="#263238" stroke="#263238" stroke-miterlimit="10" stroke-linecap="round"/>
<path d="M97.1337 171.735C97.1337 171.735 91.2394 171.968 89.3688 171.837C87.4983 171.707 86.0803 170.793 85.5672 171.25C85.0541 171.707 85.6965 172.421 85.6965 172.421C85.6965 172.421 85.5026 173.527 86.0197 174.114C86.5368 174.702 87.2317 175.22 89.4335 175.873C91.6353 176.525 93.8775 175.603 95.0895 175.277L97.6953 174.583C97.6953 174.583 97.0974 173.649 97.1337 171.735Z" fill="white"/>
<path opacity="0.1" d="M97.1337 171.735C97.1337 171.735 91.2394 171.968 89.3688 171.837C87.4983 171.707 86.0803 170.793 85.5672 171.25C85.0541 171.707 85.6965 172.421 85.6965 172.421C85.6965 172.421 85.5026 173.527 86.0197 174.114C86.5368 174.702 87.2317 175.22 89.4335 175.873C91.6353 176.525 93.8775 175.603 95.0895 175.277L97.6953 174.583C97.6953 174.583 97.0974 173.649 97.1337 171.735Z" fill="#18143C"/>
<path d="M97.1337 171.735C97.1337 171.735 91.2394 171.968 89.3688 171.837C87.4983 171.707 86.0803 170.793 85.5672 171.25C85.0541 171.707 85.6965 172.421 85.6965 172.421C85.6965 172.421 85.5026 173.527 86.0197 174.114C86.5368 174.702 87.2317 175.22 89.4335 175.873C91.6353 176.525 93.8775 175.603 95.0895 175.277L97.6953 174.583C97.6953 174.583 97.0974 173.649 97.1337 171.735Z" stroke="#263238" stroke-miterlimit="10" stroke-linecap="round"/>
<path d="M85.6965 172.421C85.8297 172.33 85.9865 172.282 86.1469 172.282C86.3074 172.282 86.4642 172.33 86.5974 172.421C86.906 172.633 87.2582 172.773 87.6276 172.829" stroke="#263238" stroke-miterlimit="10" stroke-linecap="round"/>
<path d="M85.7692 173.686C85.8722 173.592 85.9964 173.525 86.1309 173.491C86.2654 173.457 86.4062 173.456 86.5409 173.49C86.8485 173.578 87.1664 173.625 87.4862 173.628" stroke="#263238" stroke-miterlimit="10" stroke-linecap="round"/>
<path d="M86.755 174.718C86.755 174.718 86.8681 174.388 87.0822 174.388C87.2963 174.388 88.1811 174.506 88.4114 174.486" stroke="#263238" stroke-miterlimit="10" stroke-linecap="round"/>
<path d="M88.0074 175.362C88.0074 175.362 88.2215 175.069 88.4114 175.052C88.6551 175.018 88.9006 174.998 89.1467 174.991" stroke="#263238" stroke-miterlimit="10" stroke-linecap="round"/>
<path d="M100.131 171.544C100.131 171.544 112.461 165.424 117.443 161.943" stroke="white" stroke-miterlimit="10" stroke-linecap="round"/>
<path d="M86.2136 161.16C86.2136 161.16 96.7499 169.479 102.689 170.059" stroke="white" stroke-miterlimit="10" stroke-linecap="round"/>
<path d="M91.1464 160.936C91.1464 160.936 99.1618 163.445 101.246 166.684" stroke="white" stroke-miterlimit="10" stroke-linecap="round"/>
<path d="M104.054 165.55C104.054 165.55 109.023 161.988 114.154 160.936" stroke="white" stroke-miterlimit="10" stroke-linecap="round"/>
</svg>
