<svg width="229" height="54" viewBox="0 0 229 54" fill="none" xmlns="http://www.w3.org/2000/svg">
<path d="M76.09 24.456C75.482 23.3413 74.646 22.4927 73.582 21.91C72.518 21.3273 71.2767 21.036 69.858 21.036C68.2873 21.036 66.894 21.3907 65.678 22.1C64.462 22.8093 63.512 23.8227 62.828 25.14C62.144 26.4573 61.802 27.9773 61.802 29.7C61.802 31.4733 62.144 33.0187 62.828 34.336C63.5373 35.6533 64.5127 36.6667 65.754 37.376C66.9953 38.0853 68.4393 38.44 70.086 38.44C72.1127 38.44 73.772 37.908 75.064 36.844C76.356 35.7547 77.2047 34.2473 77.61 32.322H68.49V28.256H82.854V32.892C82.4993 34.7413 81.7393 36.4513 80.574 38.022C79.4087 39.5927 77.9013 40.8593 76.052 41.822C74.228 42.7593 72.176 43.228 69.896 43.228C67.3373 43.228 65.0193 42.658 62.942 41.518C60.89 40.3527 59.2687 38.744 58.078 36.692C56.9127 34.64 56.33 32.3093 56.33 29.7C56.33 27.0907 56.9127 24.76 58.078 22.708C59.2687 20.6307 60.89 19.022 62.942 17.882C65.0193 16.7167 67.3247 16.134 69.858 16.134C72.8473 16.134 75.444 16.8687 77.648 18.338C79.852 19.782 81.372 21.8213 82.208 24.456H76.09ZM106.93 21.948L93.896 52.956H88.234L92.794 42.468L84.358 21.948H90.324L95.758 36.654L101.268 21.948H106.93ZM135.942 21.644C138.526 21.644 140.603 22.442 142.174 24.038C143.77 25.6087 144.568 27.8127 144.568 30.65V43H139.248V31.372C139.248 29.7253 138.83 28.4713 137.994 27.61C137.158 26.7233 136.018 26.28 134.574 26.28C133.13 26.28 131.977 26.7233 131.116 27.61C130.28 28.4713 129.862 29.7253 129.862 31.372V43H124.542V31.372C124.542 29.7253 124.124 28.4713 123.288 27.61C122.452 26.7233 121.312 26.28 119.868 26.28C118.398 26.28 117.233 26.7233 116.372 27.61C115.536 28.4713 115.118 29.7253 115.118 31.372V43H109.798V21.948H115.118V24.494C115.802 23.6073 116.676 22.9107 117.74 22.404C118.829 21.8973 120.02 21.644 121.312 21.644C122.958 21.644 124.428 21.9987 125.72 22.708C127.012 23.392 128.012 24.38 128.722 25.672C129.406 24.456 130.394 23.4807 131.686 22.746C133.003 22.0113 134.422 21.644 135.942 21.644ZM165.994 16.476V20.77H154.936V27.572H163.41V31.79H154.936V43H149.616V16.476H165.994ZM175.087 14.88V43H169.767V14.88H175.087ZM199.913 32.018C199.913 32.778 199.862 33.462 199.761 34.07H184.371C184.497 35.59 185.029 36.7807 185.967 37.642C186.904 38.5033 188.057 38.934 189.425 38.934C191.401 38.934 192.807 38.0853 193.643 36.388H199.381C198.773 38.4147 197.607 40.0867 195.885 41.404C194.162 42.696 192.047 43.342 189.539 43.342C187.512 43.342 185.688 42.8987 184.067 42.012C182.471 41.1 181.217 39.8207 180.305 38.174C179.418 36.5273 178.975 34.6273 178.975 32.474C178.975 30.2953 179.418 28.3827 180.305 26.736C181.191 25.0893 182.433 23.8227 184.029 22.936C185.625 22.0493 187.461 21.606 189.539 21.606C191.54 21.606 193.326 22.0367 194.897 22.898C196.493 23.7593 197.721 24.988 198.583 26.584C199.469 28.1547 199.913 29.966 199.913 32.018ZM194.403 30.498C194.377 29.13 193.883 28.0407 192.921 27.23C191.958 26.394 190.78 25.976 189.387 25.976C188.069 25.976 186.955 26.3813 186.043 27.192C185.156 27.9773 184.611 29.0793 184.409 30.498H194.403ZM215.424 43L211.092 36.464L207.254 43H201.554L208.432 32.436L201.478 21.948H207.482L211.776 28.446L215.652 21.948H221.352L214.436 32.436L221.428 43H215.424Z" fill="white"/>
<path d="M35.8741 1.20458L34.588 2.40935L40.6094 7.75221L46.6308 13.1475L47.917 11.8903C48.6185 11.2094 49.2031 10.3189 49.2031 9.95222C49.2031 8.9046 39.2064 -0.000178833 38.0372 -0.000178833C37.5695 -0.000178833 36.5757 0.523632 35.8741 1.20458Z" fill="#DC293F"/>
<path d="M43.5909 0.575739C43.0647 1.36145 47.6831 5.49956 48.56 5.02813C49.6123 4.45194 49.32 2.19955 48.0339 1.04717C46.7477 -0.105215 44.234 -0.36712 43.5909 0.575739Z" fill="#DC293F"/>
<path d="M26.5207 2.25272C25.8192 2.93367 25.2346 3.82415 25.2346 4.2432C25.2346 5.23844 43.4157 21.4766 44.5849 21.4766C45.6957 21.4766 48.0341 19.3289 48.0341 18.2813C48.0341 17.2861 29.8529 1.04796 28.6837 1.04796C28.216 1.04796 27.2222 1.57177 26.5207 2.25272Z" fill="#DC293F"/>
<path d="M22.7789 20.271L14.7698 27.4996L16.5821 29.2806L18.3359 31.0615L26.5788 23.6758L34.8217 16.2901L33.1264 14.6663C32.191 13.8282 31.3141 13.0948 31.0803 13.0948C30.9049 13.0948 27.1634 16.3425 22.7789 20.271Z" fill="#DC293F"/>
<path d="M2.55175 23.7283C1.85023 24.4093 1.26562 25.2997 1.26562 25.7188C1.26562 26.714 19.4468 42.9521 20.616 42.9521C21.7267 42.9521 24.0652 40.8045 24.0652 39.7569C24.0652 38.7617 5.88399 22.5235 4.71479 22.5235C4.2471 22.5235 3.25328 23.0474 2.55175 23.7283Z" fill="#DC293F"/>
<path d="M1.38275 32.1095C0.681222 32.7905 0.0966187 33.6809 0.0966187 34.1C0.0966187 35.0952 10.0933 44 11.2625 44C11.7887 44 12.7241 43.4762 13.4256 42.7952L14.7117 41.5905L8.69029 36.2476L2.66887 30.8524L1.38275 32.1095Z" fill="#DC293F"/>
<path d="M0.505695 39.1286C-1.07273 40.4905 1.32414 44 3.83793 44C6.23481 44 6.23481 42.9524 3.83793 40.8048C1.55798 38.7095 1.14876 38.5 0.505695 39.1286Z" fill="#DC293F"/>
</svg>
